<svg xmlns="http://www.w3.org/2000/svg" xmlns:xlink="http://www.w3.org/1999/xlink" xmlns:lucid="lucid" width="1645.75" height="1196.8"><g transform="translate(-37.2469135802469 -107)" lucid:page-tab-id="0_0"><g filter="url(#a)"><path d="M400 230c0 33.14-26.86 60-60 60s-60-26.86-60-60 26.86-60 60-60 60 26.86 60 60z" stroke="#4881b3" stroke-width="3" fill="#f5fbff"/><use xlink:href="#b" transform="matrix(1,0,0,1,285,175) translate(6.91858024691358 45.27777777777778)"/><use xlink:href="#c" transform="matrix(1,0,0,1,285,175) translate(55.005 45.27777777777778)"/><use xlink:href="#d" transform="matrix(1,0,0,1,285,175) translate(40.40623456790123 71.94444444444446)"/></g><g filter="url(#a)"><path d="M400 470c0 33.14-26.86 60-60 60s-60-26.86-60-60 26.86-60 60-60 60 26.86 60 60z" stroke="#4881b3" stroke-width="3" fill="#f5fbff"/><use xlink:href="#e" transform="matrix(1,0,0,1,285,415) translate(30.961790123456794 45.27777777777778)"/><use xlink:href="#f" transform="matrix(1,0,0,1,285,415) translate(24.171666666666674 71.94444444444446)"/></g><path d="M341 390h-2v-49h2zm0-70.33h-2V292.5h2z" stroke="#224c72" stroke-width=".05" fill="#224c72"/><path d="M340 291.5l1-.03v1.06h-2v-1.07z" fill="#224c72"/><path d="M340 291.48l1.02-.04v1.1h-2.04v-1.1zm-.98 1.02h1.96v-1l-1 .03-.96-.04z" stroke="#224c72" stroke-width=".05" fill="#224c72"/><path d="M340 405.26L335.37 391h9.26z" fill="#224c72"/><path d="M340 408.5l-6-18.5h12zm-3.26-16.5l3.26 10.03 3.26-10.03z" stroke="#224c72" stroke-width=".05" fill="#224c72"/><use xlink:href="#g" transform="matrix(1,0,0,1,222.56790123456787,319.66967920235464) translate(0 14.222222222222223)"/><use xlink:href="#h" transform="matrix(1,0,0,1,222.56790123456787,319.66967920235464) translate(80.83950617283952 14.222222222222223)"/><use xlink:href="#i" transform="matrix(1,0,0,1,222.56790123456787,319.66967920235464) translate(134.0740740740741 14.222222222222223)"/><use xlink:href="#j" transform="matrix(1,0,0,1,222.56790123456787,319.66967920235464) translate(188.83950617283955 14.222222222222223)"/><g filter="url(#a)"><path d="M820 470c0 33.14-26.86 60-60 60s-60-26.86-60-60 26.86-60 60-60 60 26.86 60 60z" stroke="#4881b3" stroke-width="3" fill="#f5fbff"/><use xlink:href="#e" transform="matrix(1,0,0,1,705,415) translate(30.961790123456794 45.27777777777778)"/><use xlink:href="#k" transform="matrix(1,0,0,1,705,415) translate(23.400061728395062 71.94444444444446)"/></g><path d="M680 471h-19.1v-2H680z" stroke="#224c72" stroke-width=".05" fill="#224c72"/><path fill="#224c72"/><path stroke="#224c72" stroke-width=".05" fill="#224c72"/><path d="M695.26 470L681 474.63v-9.26z" fill="#224c72"/><path d="M698.5 470l-18.5 6v-12zm-16.5 3.26l10.03-3.26-10.03-3.26z" stroke="#224c72" stroke-width=".05" fill="#224c72"/><use xlink:href="#g" transform="matrix(1,0,0,1,400.4197530864197,459.3333333333333) translate(0 14.222222222222223)"/><use xlink:href="#h" transform="matrix(1,0,0,1,400.4197530864197,459.3333333333333) translate(80.83950617283952 14.222222222222223)"/><use xlink:href="#l" transform="matrix(1,0,0,1,400.4197530864197,459.3333333333333) translate(134.0740740740741 14.222222222222223)"/><use xlink:href="#m" transform="matrix(1,0,0,1,400.4197530864197,459.3333333333333) translate(169.13580246913585 14.222222222222223)"/><use xlink:href="#j" transform="matrix(1,0,0,1,400.4197530864197,459.3333333333333) translate(214.4691358024692 14.222222222222223)"/><g filter="url(#a)"><path d="M1240 470c0 33.14-26.86 60-60 60s-60-26.86-60-60 26.86-60 60-60 60 26.86 60 60z" stroke="#4881b3" stroke-width="3" fill="#f5fbff"/><use xlink:href="#e" transform="matrix(1,0,0,1,1125,415) translate(30.961790123456794 45.27777777777778)"/><use xlink:href="#n" transform="matrix(1,0,0,1,1125,415) translate(17.99882716049383 71.94444444444446)"/></g><path d="M1100 471h-18.77v-2H1100z" stroke="#224c72" stroke-width=".05" fill="#224c72"/><path fill="#224c72"/><path stroke="#224c72" stroke-width=".05" fill="#224c72"/><path d="M1115.26 470l-14.26 4.63v-9.26z" fill="#224c72"/><path d="M1118.5 470l-18.5 6v-12zm-16.5 3.26l10.03-3.26-10.03-3.26z" stroke="#224c72" stroke-width=".05" fill="#224c72"/><use xlink:href="#g" transform="matrix(1,0,0,1,820.7365621478073,459.3333333333333) translate(0 14.222222222222223)"/><use xlink:href="#h" transform="matrix(1,0,0,1,820.7365621478073,459.3333333333333) translate(80.83950617283952 14.222222222222223)"/><use xlink:href="#o" transform="matrix(1,0,0,1,820.7365621478073,459.3333333333333) translate(134.0740740740741 14.222222222222223)"/><use xlink:href="#m" transform="matrix(1,0,0,1,820.7365621478073,459.3333333333333) translate(169.13580246913585 14.222222222222223)"/><use xlink:href="#j" transform="matrix(1,0,0,1,820.7365621478073,459.3333333333333) translate(214.4691358024692 14.222222222222223)"/><g filter="url(#a)"><path d="M1640 470c0 33.14-26.86 60-60 60s-60-26.86-60-60 26.86-60 60-60 60 26.86 60 60z" stroke="#4881b3" stroke-width="3" fill="#f5fbff"/><use xlink:href="#p" transform="matrix(1,0,0,1,1525,415) translate(7.53086419753086 59.02777777777778)"/><use xlink:href="#q" transform="matrix(1,0,0,1,1525,415) translate(61.79012345679012 59.02777777777778)"/></g><path d="M1500 471h-9.14v-2h9.14z" stroke="#224c72" stroke-width=".05" fill="#224c72"/><path fill="#224c72"/><path stroke="#224c72" stroke-width=".05" fill="#224c72"/><path d="M1515.26 470l-14.26 4.63v-9.26z" fill="#224c72"/><path d="M1518.5 470l-18.5 6v-12zm-16.5 3.26l10.03-3.26-10.03-3.26z" stroke="#224c72" stroke-width=".05" fill="#224c72"/><use xlink:href="#g" transform="matrix(1,0,0,1,1240.2446616988755,459.3333333333333) translate(0 14.222222222222223)"/><use xlink:href="#h" transform="matrix(1,0,0,1,1240.2446616988755,459.3333333333333) translate(80.83950617283952 14.222222222222223)"/><use xlink:href="#r" transform="matrix(1,0,0,1,1240.2446616988755,459.3333333333333) translate(134.0740740740741 14.222222222222223)"/><use xlink:href="#m" transform="matrix(1,0,0,1,1240.2446616988755,459.3333333333333) translate(159.2592592592593 14.222222222222223)"/><use xlink:href="#j" transform="matrix(1,0,0,1,1240.2446616988755,459.3333333333333) translate(204.59259259259264 14.222222222222223)"/><path d="M755.1 229.08l1.06.26 1.02.42.94.57.83.72.72.83.57.94.42 1.02.26 1.06.08 1.06V407.5h-2V236.04l-.07-.82-.18-.76-.3-.73-.4-.67-.52-.6-.6-.5-.66-.4-.73-.3-.76-.2-.82-.06H420v-2h334.04z" stroke="#224c72" stroke-width=".05" fill="#224c72"/><path d="M761 408.54l-1-.04-1 .03v-1.06h2z" fill="#224c72"/><path d="M761.02 408.57l-1-.05-1.04.04v-1.1H761zm-2-1.07v1l1-.03.96.04v-1z" stroke="#224c72" stroke-width=".05" fill="#224c72"/><path d="M419 234.63L404.74 230l14.26-4.63z" fill="#224c72"/><path d="M420 236l-18.5-6 18.5-6zm-12.03-6l10.03 3.26v-6.52zM1175.1 229.08l1.06.26 1.02.42.94.57.83.72.72.83.57.94.42 1.02.26 1.06.08 1.06V407.5h-2V236.04l-.07-.82-.18-.76-.3-.73-.4-.67-.52-.6-.6-.5-.66-.4-.73-.3-.76-.2-.82-.06h-48.1v-2h48.18zM420 231v-2h390.46v2z" stroke="#224c72" stroke-width=".05" fill="#224c72"/><path d="M1181 408.54l-1-.04-1 .03v-1.06h2z" fill="#224c72"/><path d="M1181.03 408.57l-1.02-.05-1.03.04v-1.1h2.06zm-2-1.07v1l.98-.03.97.04v-1z" stroke="#224c72" stroke-width=".05" fill="#224c72"/><path d="M419 234.63L404.74 230l14.26-4.63z" fill="#224c72"/><path d="M420 236l-18.5-6 18.5-6zm-12.03-6l10.03 3.26v-6.52zM1575.1 229.08l1.06.26 1.02.42.94.57.83.72.72.83.57.94.42 1.02.26 1.06.08 1.06V407.5h-2V236.04l-.07-.82-.18-.76-.3-.73-.4-.67-.52-.6-.6-.5-.66-.4-.73-.3-.76-.2-.82-.06h-448.1v-2h448.18zM420 231v-2h390.46v2z" stroke="#224c72" stroke-width=".05" fill="#224c72"/><path d="M1581 408.54l-1-.04-1 .03v-1.06h2z" fill="#224c72"/><path d="M1581.03 408.57l-1.02-.05-1.03.04v-1.1h2.06zm-2-1.07v1l.98-.03.97.04v-1z" stroke="#224c72" stroke-width=".05" fill="#224c72"/><path d="M419 234.63L404.74 230l14.26-4.63z" fill="#224c72"/><path d="M420 236l-18.5-6 18.5-6zm-12.03-6l10.03 3.26v-6.52z" stroke="#224c72" stroke-width=".05" fill="#224c72"/><use xlink:href="#s" transform="matrix(1,0,0,1,810.4612262559677,219.33333333333334) translate(0 14.222222222222223)"/><use xlink:href="#h" transform="matrix(1,0,0,1,810.4612262559677,219.33333333333334) translate(43.35802469135803 14.222222222222223)"/><use xlink:href="#t" transform="matrix(1,0,0,1,810.4612262559677,219.33333333333334) translate(96.59259259259261 14.222222222222223)"/><path d="M141 903.96l.06.82.2.76.3.73.4.67.5.6.6.5.67.4.73.3.76.2.82.06H400v2H145.96l-1.06-.08-1.06-.26-1.02-.42-.94-.57-.83-.72-.72-.83-.57-.94-.42-1.02-.26-1.06-.08-1.06v-396.4h2zM277.5 231H146.04l-.82.06-.76.2-.73.3-.67.4-.6.5-.5.6-.4.67-.3.73-.2.76-.06.82V486.3h-2V235.95l.08-1.06.26-1.06.42-1.02.57-.94.72-.83.83-.72.94-.57 1.02-.42 1.06-.26 1.06-.08H277.5z" stroke="#224c72" stroke-width=".05" fill="#224c72"/><path d="M278.5 230l.03 1h-1.06v-2h1.07z" fill="#224c72"/><path d="M278.52 230l.04 1.03h-1.1v-2.06h1.1zm-1.02-.97v1.94h1l-.03-.97.04-.97z" stroke="#224c72" stroke-width=".05" fill="#224c72"/><path d="M415.26 910L401 914.63v-9.26z" fill="#224c72"/><path d="M418.5 910l-18.5 6v-12zm-16.5 3.26l10.03-3.26-10.03-3.26z" stroke="#224c72" stroke-width=".05" fill="#224c72"/><use xlink:href="#u" transform="matrix(1,0,0,1,40.2469135802469,486.29132123932163) translate(0 14.222222222222223)"/><use xlink:href="#v" transform="matrix(1,0,0,1,40.2469135802469,486.29132123932163) translate(42.41975308641976 14.222222222222223)"/><use xlink:href="#w" transform="matrix(1,0,0,1,40.2469135802469,486.29132123932163) translate(104.3456790123457 14.222222222222223)"/><use xlink:href="#x" transform="matrix(1,0,0,1,40.2469135802469,486.29132123932163) translate(169.33333333333337 14.222222222222223)"/><path d="M141 903.96l.06.82.2.76.3.73.4.67.5.6.6.5.67.4.73.3.76.2.82.06H400v2H145.96l-1.06-.08-1.06-.26-1.02-.42-.94-.57-.83-.72-.72-.83-.57-.94-.42-1.02-.26-1.06-.08-1.06v-396.4h2zM277.5 471H146.04l-.82.06-.76.2-.73.3-.67.4-.6.5-.5.6-.4.67-.3.73-.2.76-.06.82v10.25h-2v-10.34l.08-1.06.26-1.06.42-1.02.57-.94.72-.83.83-.72.94-.57 1.02-.42 1.06-.26 1.06-.08H277.5z" stroke="#224c72" stroke-width=".05" fill="#224c72"/><path d="M278.5 470l.03 1h-1.06v-2h1.07z" fill="#224c72"/><path d="M278.52 470l.04 1.02h-1.1v-2.04h1.1zm-1.02-.98v1.96h1l-.03-1 .04-.96z" stroke="#224c72" stroke-width=".05" fill="#224c72"/><path d="M415.26 910L401 914.63v-9.26z" fill="#224c72"/><path d="M418.5 910l-18.5 6v-12zm-16.5 3.26l10.03-3.26-10.03-3.26z" stroke="#224c72" stroke-width=".05" fill="#224c72"/><path d="M705.64 581h-559.6l-.82.07-.76.18-.73.3-.67.4-.6.52-.5.6-.4.66-.3.73-.2.76-.06.82v317.92l.06.82.2.76.3.73.4.67.5.6.6.5.67.4.73.3.76.2.82.06H400v2H145.96l-1.06-.08-1.06-.26-1.02-.42-.94-.57-.83-.72-.72-.83-.57-.94-.42-1.02-.26-1.06-.08-1.06V585.96l.08-1.06.26-1.06.42-1.02.57-.94.72-.83.83-.72.94-.57 1.02-.42 1.06-.26 1.06-.08h559.68zM761 569.33h-2V532.5h2z" stroke="#224c72" stroke-width=".05" fill="#224c72"/><path d="M760 531.5l1-.03v1.06h-2v-1.07z" fill="#224c72"/><path d="M760 531.48l1.02-.04v1.1H759v-1.1zm-.98 1.02H761v-1l-1 .03-.96-.04z" stroke="#224c72" stroke-width=".05" fill="#224c72"/><path d="M415.26 910L401 914.63v-9.26z" fill="#224c72"/><path d="M418.5 910l-18.5 6v-12zm-16.5 3.26l10.03-3.26-10.03-3.26z" stroke="#224c72" stroke-width=".05" fill="#224c72"/><path d="M705.64 581h-559.6l-.82.07-.76.18-.73.3-.67.4-.6.52-.5.6-.4.66-.3.73-.2.76-.06.82v317.92l.06.82.2.76.3.73.4.67.5.6.6.5.67.4.73.3.76.2.82.06H400v2H145.96l-1.06-.08-1.06-.26-1.02-.42-.94-.57-.83-.72-.72-.83-.57-.94-.42-1.02-.26-1.06-.08-1.06V585.96l.08-1.06.26-1.06.42-1.02.57-.94.72-.83.83-.72.94-.57 1.02-.42 1.06-.26 1.06-.08h559.68zm475.36-6.96l-.08 1.06-.26 1.06-.42 1.02-.57.94-.72.83-.83.72-.94.57-1.02.42-1.06.26-1.06.08h-268.9v-2h268.82l.82-.07.76-.18.73-.3.67-.4.6-.52.5-.6.4-.66.3-.73.2-.76.06-.82V532.5h2z" stroke="#224c72" stroke-width=".05" fill="#224c72"/><path d="M1180 531.5l1-.03v1.06h-2v-1.07z" fill="#224c72"/><path d="M1180 531.48l1.03-.04v1.1h-2.06v-1.1zm-.97 1.02h1.94v-1l-.98.03-.97-.04z" stroke="#224c72" stroke-width=".05" fill="#224c72"/><path d="M415.26 910L401 914.63v-9.26z" fill="#224c72"/><path d="M418.5 910l-18.5 6v-12zm-16.5 3.26l10.03-3.26-10.03-3.26z" stroke="#224c72" stroke-width=".05" fill="#224c72"/><path d="M705.64 581h-559.6l-.82.07-.76.18-.73.3-.67.4-.6.52-.5.6-.4.66-.3.73-.2.76-.06.82v317.92l.06.82.2.76.3.73.4.67.5.6.6.5.67.4.73.3.76.2.82.06H400v2H145.96l-1.06-.08-1.06-.26-1.02-.42-.94-.57-.83-.72-.72-.83-.57-.94-.42-1.02-.26-1.06-.08-1.06V585.96l.08-1.06.26-1.06.42-1.02.57-.94.72-.83.83-.72.94-.57 1.02-.42 1.06-.26 1.06-.08h559.68zm875.36-6.96l-.08 1.06-.26 1.06-.42 1.02-.57.94-.72.83-.83.72-.94.57-1.02.42-1.06.26-1.06.08h-668.9v-2h668.82l.82-.07.76-.18.73-.3.67-.4.6-.52.5-.6.4-.66.3-.73.2-.76.06-.82V532.5h2z" stroke="#224c72" stroke-width=".05" fill="#224c72"/><path d="M1580 531.5l1-.03v1.06h-2v-1.07z" fill="#224c72"/><path d="M1580 531.48l1.03-.04v1.1h-2.06v-1.1zm-.97 1.02h1.94v-1l-.98.03-.97-.04z" stroke="#224c72" stroke-width=".05" fill="#224c72"/><path d="M415.26 910L401 914.63v-9.26z" fill="#224c72"/><path d="M418.5 910l-18.5 6v-12zm-16.5 3.26l10.03-3.26-10.03-3.26z" stroke="#224c72" stroke-width=".05" fill="#224c72"/><use xlink:href="#u" transform="matrix(1,0,0,1,705.639354001503,569.3333333333334) translate(0 14.222222222222223)"/><use xlink:href="#v" transform="matrix(1,0,0,1,705.639354001503,569.3333333333334) translate(42.41975308641976 14.222222222222223)"/><use xlink:href="#w" transform="matrix(1,0,0,1,705.639354001503,569.3333333333334) translate(104.3456790123457 14.222222222222223)"/><use xlink:href="#x" transform="matrix(1,0,0,1,705.639354001503,569.3333333333334) translate(169.33333333333337 14.222222222222223)"/><g filter="url(#y)"><path d="M580 910c0 46.94-35.82 85-80 85s-80-38.06-80-85 35.82-85 80-85 80 38.06 80 85z" stroke="#e08fff" stroke-width="3" fill="#f5fbff"/><use xlink:href="#p" transform="matrix(1,0,0,1,425,830) translate(18.30746913580247 42.77777777777778)"/><use xlink:href="#z" transform="matrix(1,0,0,1,425,830) translate(72.56672839506173 42.77777777777778)"/><use xlink:href="#A" transform="matrix(1,0,0,1,425,830) translate(11.574074074074076 69.44444444444446)"/><use xlink:href="#B" transform="matrix(1,0,0,1,425,830) translate(81.82098765432099 69.44444444444446)"/><use xlink:href="#C" transform="matrix(1,0,0,1,425,830) translate(10.956790123456798 96.11111111111111)"/><use xlink:href="#D" transform="matrix(1,0,0,1,425,830) translate(83.54938271604938 96.11111111111111)"/><use xlink:href="#E" transform="matrix(1,0,0,1,425,830) translate(38.83216049382715 122.7777777777778)"/></g><path d="M757.1 691H606.03l-.82.07-.76.18-.73.3-.67.4-.6.52-.5.6-.4.66-.3.73-.2.76-.06.82v208l-.08 1.06-.26 1.06-.42 1.02-.57.94-.72.83-.83.72-.94.57-1.02.42-1.06.26-1.06.08H582.5v-2h11.46l.82-.07.76-.18.73-.3.67-.4.6-.52.5-.6.4-.66.3-.73.2-.76.06-.82v-208l.08-1.06.26-1.06.42-1.02.57-.94.72-.83.83-.72.94-.57 1.02-.42 1.06-.26 1.06-.08H757.1zm284.4 0H872v-2h169.5z" stroke="#224c72" stroke-width=".05" fill="#224c72"/><path d="M582.53 911h-1.06l.03-1-.02-1h1.05z" fill="#224c72"/><path d="M582.55 911.02h-1.1l.02-1-.02-1.04h1.1zm-1.04-2l.02 1-.02.96h1V909z" stroke="#224c72" stroke-width=".05" fill="#224c72"/><path d="M1056.76 690l-14.26 4.63v-9.26z" fill="#224c72"/><path d="M1060 690l-18.5 6v-12zm-16.5 3.26l10.03-3.26-10.03-3.26z" stroke="#224c72" stroke-width=".05" fill="#224c72"/><use xlink:href="#F" transform="matrix(1,0,0,1,757.087621224998,679.3333333333334) translate(0 14.222222222222223)"/><use xlink:href="#G" transform="matrix(1,0,0,1,757.087621224998,679.3333333333334) translate(28.543209876543212 14.222222222222223)"/><use xlink:href="#H" transform="matrix(1,0,0,1,757.087621224998,679.3333333333334) translate(82.46913580246914 14.222222222222223)"/><path d="M645.6 911h-63.1v-2h63.1zm395.9 0h-45.6v-2h45.6z" stroke="#224c72" stroke-width=".05" fill="#224c72"/><path d="M582.53 911h-1.06l.03-1-.02-1h1.05z" fill="#224c72"/><path d="M582.55 911.02h-1.1l.02-1-.02-1.04h1.1zm-1.04-2l.02 1-.02.96h1V909z" stroke="#224c72" stroke-width=".05" fill="#224c72"/><path d="M1056.76 910l-14.26 4.63v-9.26z" fill="#224c72"/><path d="M1060 910l-18.5 6v-12zm-16.5 3.26l10.03-3.26-10.03-3.26z" stroke="#224c72" stroke-width=".05" fill="#224c72"/><use xlink:href="#I" transform="matrix(1,0,0,1,645.6143574894764,899.3333333333334) translate(0 14.222222222222223)"/><use xlink:href="#J" transform="matrix(1,0,0,1,645.6143574894764,899.3333333333334) translate(44.39506172839507 14.222222222222223)"/><use xlink:href="#K" transform="matrix(1,0,0,1,645.6143574894764,899.3333333333334) translate(114.32098765432099 14.222222222222223)"/><use xlink:href="#L" transform="matrix(1,0,0,1,645.6143574894764,899.3333333333334) translate(204.93827160493828 14.222222222222223)"/><use xlink:href="#M" transform="matrix(1,0,0,1,645.6143574894764,899.3333333333334) translate(273.82716049382714 14.222222222222223)"/><use xlink:href="#N" transform="matrix(1,0,0,1,645.6143574894764,899.3333333333334) translate(299.01234567901236 14.222222222222223)"/><path d="M595.1 909.08l1.06.26 1.02.42.94.57.83.72.72.83.57.94.42 1.02.26 1.06.08 1.06v208l.07.82.18.76.3.73.4.67.52.6.6.5.66.4.73.3.76.2.82.06h17.87v2h-17.94l-1.06-.08-1.06-.26-1.02-.42-.94-.57-.83-.72-.72-.83-.57-.94-.42-1.02-.26-1.06-.08-1.06v-208l-.07-.82-.18-.76-.3-.73-.4-.67-.52-.6-.6-.5-.66-.4-.73-.3-.76-.2-.82-.06H582.5v-2h11.54zM1041.5 1129v2h-67.32v-2z" stroke="#224c72" stroke-width=".05" fill="#224c72"/><path d="M582.53 911h-1.06l.03-1-.02-1h1.05z" fill="#224c72"/><path d="M582.55 911.02h-1.1l.02-1-.02-1.04h1.1zm-1.04-2l.02 1-.02.96h1V909z" stroke="#224c72" stroke-width=".05" fill="#224c72"/><path d="M1056.76 1130l-14.26 4.63v-9.27z" fill="#224c72"/><path d="M1060 1130l-18.5 6v-12zm-16.5 3.26l10.03-3.26-10.03-3.26z" stroke="#224c72" stroke-width=".05" fill="#224c72"/><g><use xlink:href="#I" transform="matrix(1,0,0,1,623.90454420084,1119.3333333333333) translate(0 14.222222222222223)"/><use xlink:href="#J" transform="matrix(1,0,0,1,623.90454420084,1119.3333333333333) translate(44.39506172839507 14.222222222222223)"/><use xlink:href="#K" transform="matrix(1,0,0,1,623.90454420084,1119.3333333333333) translate(114.32098765432099 14.222222222222223)"/><use xlink:href="#L" transform="matrix(1,0,0,1,623.90454420084,1119.3333333333333) translate(204.93827160493828 14.222222222222223)"/><use xlink:href="#O" transform="matrix(1,0,0,1,623.90454420084,1119.3333333333333) translate(273.82716049382714 14.222222222222223)"/><use xlink:href="#N" transform="matrix(1,0,0,1,623.90454420084,1119.3333333333333) translate(299.01234567901236 14.222222222222223)"/></g><g filter="url(#P)"><path d="M1180 690c0 33.14-26.86 60-60 60s-60-26.86-60-60 26.86-60 60-60 60 26.86 60 60z" stroke="#e08fff" stroke-width="3" fill="#f5fbff"/><use xlink:href="#e" transform="matrix(1,0,0,1,1065,635) translate(30.961790123456794 45.27777777777778)"/><use xlink:href="#f" transform="matrix(1,0,0,1,1065,635) translate(24.171666666666674 71.94444444444446)"/></g><g filter="url(#P)"><path d="M1180 910c0 33.14-26.86 60-60 60s-60-26.86-60-60 26.86-60 60-60 60 26.86 60 60z" stroke="#e08fff" stroke-width="3" fill="#f5fbff"/><use xlink:href="#e" transform="matrix(1,0,0,1,1065,855) translate(30.961790123456794 45.27777777777778)"/><use xlink:href="#k" transform="matrix(1,0,0,1,1065,855) translate(23.400061728395062 71.94444444444446)"/></g><g filter="url(#P)"><path d="M1180 1130c0 33.14-26.86 60-60 60s-60-26.86-60-60 26.86-60 60-60 60 26.86 60 60z" stroke="#e08fff" stroke-width="3" fill="#f5fbff"/><use xlink:href="#p" transform="matrix(1,0,0,1,1065,1075) translate(7.53086419753086 59.02777777777778)"/><use xlink:href="#q" transform="matrix(1,0,0,1,1065,1075) translate(61.79012345679012 59.02777777777778)"/></g><g filter="url(#y)"><path d="M1580 910c0 46.94-35.82 85-80 85s-80-38.06-80-85 35.82-85 80-85 80 38.06 80 85z" stroke="#e08fff" stroke-width="3" fill="#f5fbff"/><use xlink:href="#p" transform="matrix(1,0,0,1,1425,830) translate(18.30746913580247 42.77777777777778)"/><use xlink:href="#z" transform="matrix(1,0,0,1,1425,830) translate(72.56672839506173 42.77777777777778)"/><use xlink:href="#A" transform="matrix(1,0,0,1,1425,830) translate(11.574074074074076 69.44444444444446)"/><use xlink:href="#B" transform="matrix(1,0,0,1,1425,830) translate(81.82098765432099 69.44444444444446)"/><use xlink:href="#C" transform="matrix(1,0,0,1,1425,830) translate(10.956790123456798 96.11111111111111)"/><use xlink:href="#D" transform="matrix(1,0,0,1,1425,830) translate(83.54938271604938 96.11111111111111)"/><use xlink:href="#E" transform="matrix(1,0,0,1,1425,830) translate(38.83216049382715 122.7777777777778)"/></g><path d="M1182.5 690H1294a6 6 0 0 1 6 6v208a6 6 0 0 0 6 6h94" stroke="#224c72" stroke-width="2" fill="none"/><path d="M1182.53 691h-1.07l.04-1-.03-1h1.06z" stroke="#224c72" stroke-width=".05" fill="#224c72"/><path d="M1415.26 910l-14.26 4.63v-9.26z" stroke="#224c72" stroke-width="2" fill="#224c72"/><path d="M1182.5 1130H1294a6 6 0 0 0 6-6V916a6 6 0 0 1 6-6h94" stroke="#224c72" stroke-width="2" fill="none"/><path d="M1182.53 1131h-1.07l.04-1-.03-1h1.06z" stroke="#224c72" stroke-width=".05" fill="#224c72"/><path d="M1415.26 910l-14.26 4.63v-9.26z" stroke="#224c72" stroke-width="2" fill="#224c72"/><path d="M1182.5 910H1400" stroke="#224c72" stroke-width="2" fill="none"/><path d="M1182.53 911h-1.07l.04-1-.03-1h1.06z" stroke="#224c72" stroke-width=".05" fill="#224c72"/><path d="M1415.26 910l-14.26 4.63v-9.26z" stroke="#224c72" stroke-width="2" fill="#224c72"/><path d="M1675.1 109.08l1.06.26 1.02.42.94.57.83.72.72.83.57.94.42 1.02.26 1.06.08 1.06v788.08l-.08 1.06-.26 1.06-.42 1.02-.57.94-.72.83-.83.72-.94.57-1.02.42-1.06.26-1.06.08h-91.54v-2h91.46l.82-.07.76-.18.73-.3.67-.4.6-.52.5-.6.4-.66.3-.73.2-.76.06-.82V116.04l-.07-.82-.18-.76-.3-.73-.4-.67-.52-.6-.6-.5-.66-.4-.73-.3-.76-.2-.82-.06H346.04l-.82.06-.76.2-.73.3-.67.4-.6.5-.5.6-.4.67-.3.73-.2.76-.06.82V150h-2v-34.04l.08-1.06.26-1.06.42-1.02.57-.94.72-.83.83-.72.94-.57 1.02-.42 1.06-.26 1.06-.08h1328.08z" stroke="#224c72" stroke-width=".05" fill="#224c72"/><path d="M1582.53 911h-1.06l.03-1-.02-1h1.05z" fill="#224c72"/><path d="M1582.55 911.02h-1.1l.02-1-.02-1.04h1.1zm-1.04-2l.03 1-.03.96h1V909z" stroke="#224c72" stroke-width=".05" fill="#224c72"/><path d="M340 165.26L335.37 151h9.26z" fill="#224c72"/><path d="M340 168.5l-6-18.5h12zm-3.26-16.5l3.26 10.03 3.26-10.03z" stroke="#224c72" stroke-width=".05" fill="#224c72"/><path d="M300 1052a12 12 0 0 1 12-12h196a12 12 0 0 1 12 12v219.8a12 12 0 0 1-12 12H312a12 12 0 0 1-12-12z" stroke="#dfe3e8" stroke-width="2" fill="#f5fbff"/><path d="M385.4 1143.7c0 10.1-8.2 18.3-18.3 18.3-10.1 0-18.3-8.2-18.3-18.3 0-10.1 8.2-18.3 18.3-18.3 10.1 0 18.3 8.2 18.3 18.3z" stroke="#000" stroke-opacity=".25" fill="#e08fff"/><path d="M385.4 1192.5c0 10.1-8.2 18.3-18.3 18.3-10.1 0-18.3-8.2-18.3-18.3 0-10.1 8.2-18.3 18.3-18.3 10.1 0 18.3 8.2 18.3 18.3z" stroke="#000" stroke-opacity=".25" fill="#6db1ff"/><g><use xlink:href="#Q" transform="matrix(1,0,0,1,348.79889709563383,1076.5991728217255) translate(0 12.017079744756602)"/><use xlink:href="#R" transform="matrix(1,0,0,1,348.79889709563383,1076.5991728217255) translate(0 31.414213897977866)"/></g><g><use xlink:href="#S" transform="matrix(1,0,0,1,403.6976563282219,1125.3980699173592) translate(0 12.133705130478232)"/><use xlink:href="#T" transform="matrix(1,0,0,1,403.6976563282219,1125.3980699173592) translate(43.145561447716474 12.133705130478232)"/><use xlink:href="#U" transform="matrix(1,0,0,1,403.6976563282219,1125.3980699173592) translate(0 31.530839283699493)"/></g><g><use xlink:href="#V" transform="matrix(1,0,0,1,403.6976563282219,1174.196967012993) translate(0 12.133705130478232)"/><use xlink:href="#U" transform="matrix(1,0,0,1,403.6976563282219,1174.196967012993) translate(0 31.530839283699493)"/></g><path d="M80 1046a6 6 0 0 1 6-6h208a6 6 0 0 1 6 6v231.8a6 6 0 0 1-6 6H86a6 6 0 0 1-6-6z" stroke="#dfe3e8" stroke-width="3" fill="#f5fbff"/><g><use xlink:href="#W" transform="matrix(1,0,0,1,84.99999999999999,1045) translate(5.85 14.4)"/><use xlink:href="#X" transform="matrix(1,0,0,1,84.99999999999999,1045) translate(18 14.4)"/><use xlink:href="#Y" transform="matrix(1,0,0,1,84.99999999999999,1045) translate(69.95 14.4)"/><use xlink:href="#Z" transform="matrix(1,0,0,1,84.99999999999999,1045) translate(124.95 14.4)"/><use xlink:href="#aa" transform="matrix(1,0,0,1,84.99999999999999,1045) translate(142.9 14.4)"/><use xlink:href="#ab" transform="matrix(1,0,0,1,84.99999999999999,1045) translate(18 36)"/><use xlink:href="#ac" transform="matrix(1,0,0,1,84.99999999999999,1045) translate(38 36)"/><use xlink:href="#ad" transform="matrix(1,0,0,1,84.99999999999999,1045) translate(72 36)"/><use xlink:href="#ae" transform="matrix(1,0,0,1,84.99999999999999,1045) translate(115.95 36)"/><use xlink:href="#af" transform="matrix(1,0,0,1,84.99999999999999,1045) translate(134.9 36)"/><use xlink:href="#ag" transform="matrix(1,0,0,1,84.99999999999999,1045) translate(18 57.6)"/><use xlink:href="#ah" transform="matrix(1,0,0,1,84.99999999999999,1045) translate(67.95 57.6)"/><use xlink:href="#ai" transform="matrix(1,0,0,1,84.99999999999999,1045) translate(106.95 57.6)"/><use xlink:href="#aj" transform="matrix(1,0,0,1,84.99999999999999,1045) translate(18 79.20000000000002)"/><use xlink:href="#ak" transform="matrix(1,0,0,1,84.99999999999999,1045) translate(79.4 79.20000000000002)"/><use xlink:href="#al" transform="matrix(1,0,0,1,84.99999999999999,1045) translate(114.4 79.20000000000002)"/><use xlink:href="#am" transform="matrix(1,0,0,1,84.99999999999999,1045) translate(144.20000000000002 79.20000000000002)"/><use xlink:href="#an" transform="matrix(1,0,0,1,84.99999999999999,1045) translate(18 100.80000000000001)"/><use xlink:href="#ao" transform="matrix(1,0,0,1,84.99999999999999,1045) translate(52.95 100.80000000000001)"/><use xlink:href="#ap" transform="matrix(1,0,0,1,84.99999999999999,1045) translate(103.85000000000001 100.80000000000001)"/><use xlink:href="#aq" transform="matrix(1,0,0,1,84.99999999999999,1045) translate(129.8 100.80000000000001)"/><use xlink:href="#ar" transform="matrix(1,0,0,1,84.99999999999999,1045) translate(18 122.4)"/><use xlink:href="#W" transform="matrix(1,0,0,1,84.99999999999999,1045) translate(5.85 144)"/><use xlink:href="#X" transform="matrix(1,0,0,1,84.99999999999999,1045) translate(18 144)"/><use xlink:href="#as" transform="matrix(1,0,0,1,84.99999999999999,1045) translate(69.95 144)"/><use xlink:href="#Z" transform="matrix(1,0,0,1,84.99999999999999,1045) translate(126.95 144)"/><use xlink:href="#aa" transform="matrix(1,0,0,1,84.99999999999999,1045) translate(144.9 144)"/><use xlink:href="#at" transform="matrix(1,0,0,1,84.99999999999999,1045) translate(18 165.6)"/><use xlink:href="#ae" transform="matrix(1,0,0,1,84.99999999999999,1045) translate(110.9 165.6)"/><use xlink:href="#au" transform="matrix(1,0,0,1,84.99999999999999,1045) translate(129.85 165.6)"/><use xlink:href="#ag" transform="matrix(1,0,0,1,84.99999999999999,1045) translate(18 187.2)"/><use xlink:href="#av" transform="matrix(1,0,0,1,84.99999999999999,1045) translate(67.95 187.2)"/><use xlink:href="#aw" transform="matrix(1,0,0,1,84.99999999999999,1045) translate(107.9 187.2)"/><use xlink:href="#ax" transform="matrix(1,0,0,1,84.99999999999999,1045) translate(18 208.79999999999998)"/><use xlink:href="#ay" transform="matrix(1,0,0,1,84.99999999999999,1045) translate(70.85 208.79999999999998)"/><use xlink:href="#ak" transform="matrix(1,0,0,1,84.99999999999999,1045) translate(97.75 208.79999999999998)"/><use xlink:href="#az" transform="matrix(1,0,0,1,84.99999999999999,1045) translate(132.75 208.79999999999998)"/><use xlink:href="#aA" transform="matrix(1,0,0,1,84.99999999999999,1045) translate(18 230.39999999999998)"/></g><defs><path fill="#1d262b" d="M33 0v-248h34V0H33" id="aB"/><path fill="#1d262b" d="M85-194c31 0 48 13 60 33l-1-100h32l1 261h-30c-2-10 0-23-3-31C134-8 116 4 85 4 32 4 16-35 15-94c0-66 23-100 70-100zm9 24c-40 0-46 34-46 75 0 40 6 74 45 74 42 0 51-32 51-76 0-42-9-74-50-73" id="aC"/><path fill="#1d262b" d="M24 0v-261h32V0H24" id="aD"/><path fill="#1d262b" d="M100-194c63 0 86 42 84 106H49c0 40 14 67 53 68 26 1 43-12 49-29l28 8c-11 28-37 45-77 45C44 4 14-33 15-96c1-61 26-98 85-98zm52 81c6-60-76-77-97-28-3 7-6 17-6 28h103" id="aE"/><path fill="#1d262b" d="M0 4l72-265h28L28 4H0" id="aF"/><g id="b"><use transform="matrix(0.06172839506172839,0,0,0.06172839506172839,0,0)" xlink:href="#aB"/><use transform="matrix(0.06172839506172839,0,0,0.06172839506172839,6.172839506172839,0)" xlink:href="#aC"/><use transform="matrix(0.06172839506172839,0,0,0.06172839506172839,18.51851851851852,0)" xlink:href="#aD"/><use transform="matrix(0.06172839506172839,0,0,0.06172839506172839,23.395061728395063,0)" xlink:href="#aE"/><use transform="matrix(0.06172839506172839,0,0,0.06172839506172839,35.74074074074074,0)" xlink:href="#aF"/></g><path fill="#1d262b" d="M30 0v-248h33v221h125V0H30" id="aG"/><path fill="#1d262b" d="M24-231v-30h32v30H24zM24 0v-190h32V0H24" id="aH"/><path fill="#1d262b" d="M177-190C167-65 218 103 67 71c-23-6-38-20-44-43l32-5c15 47 100 32 89-28v-30C133-14 115 1 83 1 29 1 15-40 15-95c0-56 16-97 71-98 29-1 48 16 59 35 1-10 0-23 2-32h30zM94-22c36 0 50-32 50-73 0-42-14-75-50-75-39 0-46 34-46 75s6 73 46 73" id="aI"/><path fill="#1d262b" d="M106-169C34-169 62-67 57 0H25v-261h32l-1 103c12-21 28-36 61-36 89 0 53 116 60 194h-32v-121c2-32-8-49-39-48" id="aJ"/><path fill="#1d262b" d="M59-47c-2 24 18 29 38 22v24C64 9 27 4 27-40v-127H5v-23h24l9-43h21v43h35v23H59v120" id="aK"/><g id="c"><use transform="matrix(0.06172839506172839,0,0,0.06172839506172839,0,0)" xlink:href="#aG"/><use transform="matrix(0.06172839506172839,0,0,0.06172839506172839,12.345679012345679,0)" xlink:href="#aH"/><use transform="matrix(0.06172839506172839,0,0,0.06172839506172839,17.22222222222222,0)" xlink:href="#aI"/><use transform="matrix(0.06172839506172839,0,0,0.06172839506172839,29.5679012345679,0)" xlink:href="#aJ"/><use transform="matrix(0.06172839506172839,0,0,0.06172839506172839,41.913580246913575,0)" xlink:href="#aK"/></g><path fill="#1d262b" d="M140-251c81 0 123 46 123 126C263-46 219 4 140 4 59 4 17-45 17-125s42-126 123-126zm0 227c63 0 89-41 89-101s-29-99-89-99c-61 0-89 39-89 99S79-25 140-24" id="aL"/><path fill="#1d262b" d="M101-234c-31-9-42 10-38 44h38v23H63V0H32v-167H5v-23h27c-7-52 17-82 69-68v24" id="aM"/><g id="d"><use transform="matrix(0.06172839506172839,0,0,0.06172839506172839,0,0)" xlink:href="#aL"/><use transform="matrix(0.06172839506172839,0,0,0.06172839506172839,17.28395061728395,0)" xlink:href="#aM"/><use transform="matrix(0.06172839506172839,0,0,0.06172839506172839,23.02469135802469,0)" xlink:href="#aM"/></g><filter id="a" filterUnits="objectBoundingBox" x="-.04" y="0" width="1.04" height="1.05"><feOffset result="offOut" in="SourceAlpha" dx="-2.5" dy="4.33"/><feGaussianBlur result="blurOut" in="offOut" stdDeviation="1"/><feColorMatrix result="colorOut" in="blurOut" values="0 0 0 0 0.807843137254902 0 0 0 0 0.8313725490196079 0 0 0 0 0.8588235294117647 0 0 0 1 0"/><feBlend in="SourceGraphic" in2="colorOut"/></filter><g id="e"><use transform="matrix(0.06172839506172839,0,0,0.06172839506172839,0,0)" xlink:href="#aG"/><use transform="matrix(0.06172839506172839,0,0,0.06172839506172839,12.345679012345679,0)" xlink:href="#aH"/><use transform="matrix(0.06172839506172839,0,0,0.06172839506172839,17.22222222222222,0)" xlink:href="#aI"/><use transform="matrix(0.06172839506172839,0,0,0.06172839506172839,29.5679012345679,0)" xlink:href="#aJ"/><use transform="matrix(0.06172839506172839,0,0,0.06172839506172839,41.913580246913575,0)" xlink:href="#aK"/></g><path fill="#1d262b" d="M143 4C61 4 22-44 18-125c-5-107 100-154 193-111 17 8 29 25 37 43l-32 9c-13-25-37-40-76-40-61 0-88 39-88 99 0 61 29 100 91 101 35 0 62-11 79-27v-45h-74v-28h105v86C228-13 192 4 143 4" id="aN"/><path fill="#1d262b" d="M114-163C36-179 61-72 57 0H25l-1-190h30c1 12-1 29 2 39 6-27 23-49 58-41v29" id="aO"/><path fill="#1d262b" d="M117-194c89-4 53 116 60 194h-32v-121c0-31-8-49-39-48C34-167 62-67 57 0H25l-1-190h30c1 10-1 24 2 32 11-22 29-35 61-36" id="aP"/><g id="f"><use transform="matrix(0.06172839506172839,0,0,0.06172839506172839,0,0)" xlink:href="#aN"/><use transform="matrix(0.06172839506172839,0,0,0.06172839506172839,17.28395061728395,0)" xlink:href="#aO"/><use transform="matrix(0.06172839506172839,0,0,0.06172839506172839,24.629629629629626,0)" xlink:href="#aE"/><use transform="matrix(0.06172839506172839,0,0,0.06172839506172839,36.9753086419753,0)" xlink:href="#aE"/><use transform="matrix(0.06172839506172839,0,0,0.06172839506172839,49.32098765432098,0)" xlink:href="#aP"/></g><path fill="#1d262b" d="M67-125c0 53 21 87 73 88 37 1 54-22 65-47l45 17C233-25 199 4 140 4 58 4 20-42 15-125 8-235 124-281 211-232c18 10 29 29 36 50l-46 12c-8-25-30-41-62-41-52 0-71 34-72 86" id="aQ"/><path fill="#1d262b" d="M133-34C117-15 103 5 69 4 32 3 11-16 11-54c-1-60 55-63 116-61 1-26-3-47-28-47-18 1-26 9-28 27l-52-2c7-38 36-58 82-57s74 22 75 68l1 82c-1 14 12 18 25 15v27c-30 8-71 5-69-32zm-48 3c29 0 43-24 42-57-32 0-66-3-65 30 0 17 8 27 23 27" id="aR"/><path fill="#1d262b" d="M25 0v-261h50V0H25" id="aS"/><path fill="#1d262b" d="M185-48c-13 30-37 53-82 52C43 2 14-33 14-96s30-98 90-98c62 0 83 45 84 108H66c0 31 8 55 39 56 18 0 30-7 34-22zm-45-69c5-46-57-63-70-21-2 6-4 13-4 21h74" id="aT"/><path fill="#1d262b" d="M135-194c87-1 58 113 63 194h-50c-7-57 23-157-34-157-59 0-34 97-39 157H25l-1-190h47c2 12-1 28 3 38 12-26 28-41 61-42" id="aU"/><path fill="#1d262b" d="M88-194c31-1 46 15 58 34l-1-101h50l1 261h-48c-2-10 0-23-3-31C134-8 116 4 84 4 32 4 16-41 15-95c0-56 19-97 73-99zm17 164c33 0 40-30 41-66 1-37-9-64-41-64s-38 30-39 65c0 43 13 65 39 65" id="aV"/><path fill="#1d262b" d="M135-150c-39-12-60 13-60 57V0H25l-1-190h47c2 13-1 29 3 40 6-28 27-53 61-41v41" id="aW"/><g id="g"><use transform="matrix(0.04938271604938272,0,0,0.04938271604938272,0,0)" xlink:href="#aQ"/><use transform="matrix(0.04938271604938272,0,0,0.04938271604938272,12.790123456790125,0)" xlink:href="#aR"/><use transform="matrix(0.04938271604938272,0,0,0.04938271604938272,22.66666666666667,0)" xlink:href="#aS"/><use transform="matrix(0.04938271604938272,0,0,0.04938271604938272,27.604938271604947,0)" xlink:href="#aT"/><use transform="matrix(0.04938271604938272,0,0,0.04938271604938272,37.48148148148149,0)" xlink:href="#aU"/><use transform="matrix(0.04938271604938272,0,0,0.04938271604938272,48.296296296296305,0)" xlink:href="#aV"/><use transform="matrix(0.04938271604938272,0,0,0.04938271604938272,59.111111111111114,0)" xlink:href="#aR"/><use transform="matrix(0.04938271604938272,0,0,0.04938271604938272,68.98765432098767,0)" xlink:href="#aW"/></g><path fill="#1d262b" d="M24 0v-248h195v40H76v63h132v40H76v65h150V0H24" id="aX"/><path fill="#1d262b" d="M128 0H69L1-190h53L99-40l48-150h52" id="aY"/><path fill="#1d262b" d="M115-3C79 11 28 4 28-45v-112H4v-33h27l15-45h31v45h36v33H77v99c-1 23 16 31 38 25v30" id="aZ"/><g id="h"><use transform="matrix(0.04938271604938272,0,0,0.04938271604938272,0,0)" xlink:href="#aX"/><use transform="matrix(0.04938271604938272,0,0,0.04938271604938272,11.851851851851853,0)" xlink:href="#aY"/><use transform="matrix(0.04938271604938272,0,0,0.04938271604938272,21.7283950617284,0)" xlink:href="#aT"/><use transform="matrix(0.04938271604938272,0,0,0.04938271604938272,31.60493827160494,0)" xlink:href="#aU"/><use transform="matrix(0.04938271604938272,0,0,0.04938271604938272,42.41975308641976,0)" xlink:href="#aZ"/></g><path fill="#1d262b" d="M15-91v-56l181-69v40L49-119l147 57v40" id="ba"/><path fill="#1d262b" d="M182-182c0 78-84 86-111 141h115V0H12c-6-101 99-100 120-180 1-22-12-31-33-32-23 0-32 14-35 34l-49-3c5-45 32-70 84-70 51 0 83 22 83 69" id="bb"/><path fill="#1d262b" d="M186 0v-106H76V0H24v-248h52v99h110v-99h50V0h-50" id="bc"/><path fill="#1d262b" d="M137-138c1-29-70-34-71-4 15 46 118 7 119 86 1 83-164 76-172 9l43-7c4 19 20 25 44 25 33 8 57-30 24-41C81-84 22-81 20-136c-2-80 154-74 161-7" id="bd"/><g id="i"><use transform="matrix(0.04938271604938272,0,0,0.04938271604938272,0,0)" xlink:href="#ba"/><use transform="matrix(0.04938271604938272,0,0,0.04938271604938272,10.370370370370372,0)" xlink:href="#bb"/><use transform="matrix(0.04938271604938272,0,0,0.04938271604938272,20.24691358024692,0)" xlink:href="#bc"/><use transform="matrix(0.04938271604938272,0,0,0.04938271604938272,33.037037037037045,0)" xlink:href="#aW"/><use transform="matrix(0.04938271604938272,0,0,0.04938271604938272,39.95061728395063,0)" xlink:href="#bd"/></g><path fill="#1d262b" d="M199 0l-22-63H83L61 0H9l90-248h61L250 0h-51zm-33-102l-36-108c-10 38-24 72-36 108h72" id="be"/><path fill="#1d262b" d="M231 0h-52l-39-155L100 0H48L-1-190h46L77-45c9-52 24-97 36-145h53l37 145 32-145h46" id="bf"/><path fill="#1d262b" d="M123 10C108 53 80 86 19 72V37c35 8 53-11 59-39L3-190h52l48 148c12-52 28-100 44-148h51" id="bg"/><g id="j"><use transform="matrix(0.04938271604938272,0,0,0.04938271604938272,0,0)" xlink:href="#be"/><use transform="matrix(0.04938271604938272,0,0,0.04938271604938272,12.444444444444446,0)" xlink:href="#bf"/><use transform="matrix(0.04938271604938272,0,0,0.04938271604938272,26.271604938271608,0)" xlink:href="#aR"/><use transform="matrix(0.04938271604938272,0,0,0.04938271604938272,36.14814814814815,0)" xlink:href="#bg"/></g><path fill="#1d262b" d="M137-103V0h-34v-103L8-248h37l75 118 75-118h37" id="bh"/><path fill="#1d262b" d="M100-194c62-1 85 37 85 99 1 63-27 99-86 99S16-35 15-95c0-66 28-99 85-99zM99-20c44 1 53-31 53-75 0-43-8-75-51-75s-53 32-53 75 10 74 51 75" id="bi"/><path fill="#1d262b" d="M206 0h-36l-40-164L89 0H53L-1-190h32L70-26l43-164h34l41 164 42-164h31" id="bj"/><g id="k"><use transform="matrix(0.06172839506172839,0,0,0.06172839506172839,0,0)" xlink:href="#bh"/><use transform="matrix(0.06172839506172839,0,0,0.06172839506172839,12.777777777777777,0)" xlink:href="#aE"/><use transform="matrix(0.06172839506172839,0,0,0.06172839506172839,25.123456790123456,0)" xlink:href="#aD"/><use transform="matrix(0.06172839506172839,0,0,0.06172839506172839,30,0)" xlink:href="#aD"/><use transform="matrix(0.06172839506172839,0,0,0.06172839506172839,34.876543209876544,0)" xlink:href="#bi"/><use transform="matrix(0.06172839506172839,0,0,0.06172839506172839,47.22222222222222,0)" xlink:href="#bj"/></g><path fill="#1d262b" d="M101-251c68 0 84 54 84 127C185-50 166 4 99 4S15-52 14-124c-1-75 17-127 87-127zm-1 216c37-5 36-46 36-89s4-89-36-89c-39 0-36 45-36 89 0 43-3 85 36 89" id="bk"/><g id="l"><use transform="matrix(0.04938271604938272,0,0,0.04938271604938272,0,0)" xlink:href="#ba"/><use transform="matrix(0.04938271604938272,0,0,0.04938271604938272,10.370370370370372,0)" xlink:href="#bb"/><use transform="matrix(0.04938271604938272,0,0,0.04938271604938272,20.24691358024692,0)" xlink:href="#bk"/></g><path fill="#1d262b" d="M230 0l2-204L168 0h-37L68-204 70 0H24v-248h70l56 185 57-185h69V0h-46" id="bl"/><path fill="#1d262b" d="M25-224v-37h50v37H25zM25 0v-190h50V0H25" id="bm"/><g id="m"><use transform="matrix(0.04938271604938272,0,0,0.04938271604938272,0,0)" xlink:href="#bl"/><use transform="matrix(0.04938271604938272,0,0,0.04938271604938272,14.765432098765434,0)" xlink:href="#bm"/><use transform="matrix(0.04938271604938272,0,0,0.04938271604938272,19.703703703703706,0)" xlink:href="#aU"/><use transform="matrix(0.04938271604938272,0,0,0.04938271604938272,30.518518518518523,0)" xlink:href="#bd"/></g><path fill="#1d262b" d="M141-36C126-15 110 5 73 4 37 3 15-17 15-53c-1-64 63-63 125-63 3-35-9-54-41-54-24 1-41 7-42 31l-33-3c5-37 33-52 76-52 45 0 72 20 72 64v82c-1 20 7 32 28 27v20c-31 9-61-2-59-35zM48-53c0 20 12 33 32 33 41-3 63-29 60-74-43 2-92-5-92 41" id="bn"/><g id="n"><use transform="matrix(0.06172839506172839,0,0,0.06172839506172839,0,0)" xlink:href="#aL"/><use transform="matrix(0.06172839506172839,0,0,0.06172839506172839,17.28395061728395,0)" xlink:href="#aO"/><use transform="matrix(0.06172839506172839,0,0,0.06172839506172839,24.629629629629626,0)" xlink:href="#bn"/><use transform="matrix(0.06172839506172839,0,0,0.06172839506172839,36.9753086419753,0)" xlink:href="#aP"/><use transform="matrix(0.06172839506172839,0,0,0.06172839506172839,49.32098765432098,0)" xlink:href="#aI"/><use transform="matrix(0.06172839506172839,0,0,0.06172839506172839,61.66666666666666,0)" xlink:href="#aE"/></g><path fill="#1d262b" d="M23 0v-37h61v-169l-59 37v-38l62-41h46v211h57V0H23" id="bo"/><g id="o"><use transform="matrix(0.04938271604938272,0,0,0.04938271604938272,0,0)" xlink:href="#ba"/><use transform="matrix(0.04938271604938272,0,0,0.04938271604938272,10.370370370370372,0)" xlink:href="#bo"/><use transform="matrix(0.04938271604938272,0,0,0.04938271604938272,20.24691358024692,0)" xlink:href="#bk"/></g><g id="p"><use transform="matrix(0.06172839506172839,0,0,0.06172839506172839,0,0)" xlink:href="#aG"/><use transform="matrix(0.06172839506172839,0,0,0.06172839506172839,12.345679012345679,0)" xlink:href="#aH"/><use transform="matrix(0.06172839506172839,0,0,0.06172839506172839,17.22222222222222,0)" xlink:href="#aI"/><use transform="matrix(0.06172839506172839,0,0,0.06172839506172839,29.5679012345679,0)" xlink:href="#aJ"/><use transform="matrix(0.06172839506172839,0,0,0.06172839506172839,41.913580246913575,0)" xlink:href="#aK"/></g><path fill="#1d262b" d="M233-177c-1 41-23 64-60 70L243 0h-38l-65-103H63V0H30v-248c88 3 205-21 203 71zM63-129c60-2 137 13 137-47 0-61-80-42-137-45v92" id="bp"/><g id="q"><use transform="matrix(0.06172839506172839,0,0,0.06172839506172839,0,0)" xlink:href="#bp"/><use transform="matrix(0.06172839506172839,0,0,0.06172839506172839,15.987654320987653,0)" xlink:href="#aE"/><use transform="matrix(0.06172839506172839,0,0,0.06172839506172839,28.333333333333332,0)" xlink:href="#aC"/></g><path fill="#1d262b" d="M139-81c0-46-55-55-73-27H18l9-140h149v37H72l-4 63c44-38 133-4 122 66C201 21 21 35 11-62l49-4c5 18 15 30 39 30 26 0 40-18 40-45" id="bq"/><g id="r"><use transform="matrix(0.04938271604938272,0,0,0.04938271604938272,0,0)" xlink:href="#ba"/><use transform="matrix(0.04938271604938272,0,0,0.04938271604938272,10.370370370370372,0)" xlink:href="#bq"/></g><path fill="#1d262b" d="M175 0L67-191c6 58 2 128 3 191H24v-248h59L193-55c-6-58-2-129-3-193h46V0h-61" id="br"/><path fill="#1d262b" d="M144 0l-44-69L55 0H2l70-98-66-92h53l41 62 40-62h54l-67 91 71 99h-54" id="bs"/><g id="s"><use transform="matrix(0.04938271604938272,0,0,0.04938271604938272,0,0)" xlink:href="#br"/><use transform="matrix(0.04938271604938272,0,0,0.04938271604938272,12.790123456790125,0)" xlink:href="#aT"/><use transform="matrix(0.04938271604938272,0,0,0.04938271604938272,22.66666666666667,0)" xlink:href="#bs"/><use transform="matrix(0.04938271604938272,0,0,0.04938271604938272,32.543209876543216,0)" xlink:href="#aZ"/></g><path fill="#1d262b" d="M169-182c-1-43-94-46-97-3 18 66 151 10 154 114 3 95-165 93-204 36-6-8-10-19-12-30l50-8c3 46 112 56 116 5-17-69-150-10-154-114-4-87 153-88 188-35 5 8 8 18 10 28" id="bt"/><path fill="#1d262b" d="M4 7l51-268h42L46 7H4" id="bu"/><path fill="#1d262b" d="M190-63c-7 42-38 67-86 67-59 0-84-38-90-98-12-110 154-137 174-36l-49 2c-2-19-15-32-35-32-30 0-35 28-38 64-6 74 65 87 74 30" id="bv"/><path fill="#1d262b" d="M24-248c120-7 223 5 221 122C244-46 201 0 124 0H24v-248zM76-40c74 7 117-18 117-86 0-67-45-88-117-82v168" id="bw"/><g id="t"><use transform="matrix(0.04938271604938272,0,0,0.04938271604938272,0,0)" xlink:href="#bt"/><use transform="matrix(0.04938271604938272,0,0,0.04938271604938272,11.851851851851853,0)" xlink:href="#aZ"/><use transform="matrix(0.04938271604938272,0,0,0.04938271604938272,17.728395061728396,0)" xlink:href="#aR"/><use transform="matrix(0.04938271604938272,0,0,0.04938271604938272,27.60493827160494,0)" xlink:href="#aW"/><use transform="matrix(0.04938271604938272,0,0,0.04938271604938272,34.51851851851852,0)" xlink:href="#aZ"/><use transform="matrix(0.04938271604938272,0,0,0.04938271604938272,40.39506172839506,0)" xlink:href="#aT"/><use transform="matrix(0.04938271604938272,0,0,0.04938271604938272,50.27160493827161,0)" xlink:href="#aV"/><use transform="matrix(0.04938271604938272,0,0,0.04938271604938272,61.086419753086425,0)" xlink:href="#bu"/><use transform="matrix(0.04938271604938272,0,0,0.04938271604938272,66.0246913580247,0)" xlink:href="#aQ"/><use transform="matrix(0.04938271604938272,0,0,0.04938271604938272,78.81481481481482,0)" xlink:href="#aR"/><use transform="matrix(0.04938271604938272,0,0,0.04938271604938272,88.69135802469137,0)" xlink:href="#aU"/><use transform="matrix(0.04938271604938272,0,0,0.04938271604938272,99.50617283950618,0)" xlink:href="#bv"/><use transform="matrix(0.04938271604938272,0,0,0.04938271604938272,109.38271604938272,0)" xlink:href="#aT"/><use transform="matrix(0.04938271604938272,0,0,0.04938271604938272,119.25925925925927,0)" xlink:href="#aS"/><use transform="matrix(0.04938271604938272,0,0,0.04938271604938272,124.19753086419755,0)" xlink:href="#aS"/><use transform="matrix(0.04938271604938272,0,0,0.04938271604938272,129.13580246913583,0)" xlink:href="#aT"/><use transform="matrix(0.04938271604938272,0,0,0.04938271604938272,139.01234567901236,0)" xlink:href="#aV"/><use transform="matrix(0.04938271604938272,0,0,0.04938271604938272,149.82716049382717,0)" xlink:href="#bu"/><use transform="matrix(0.04938271604938272,0,0,0.04938271604938272,154.76543209876544,0)" xlink:href="#bw"/><use transform="matrix(0.04938271604938272,0,0,0.04938271604938272,167.55555555555557,0)" xlink:href="#aT"/><use transform="matrix(0.04938271604938272,0,0,0.04938271604938272,177.4320987654321,0)" xlink:href="#aS"/><use transform="matrix(0.04938271604938272,0,0,0.04938271604938272,182.37037037037038,0)" xlink:href="#aT"/><use transform="matrix(0.04938271604938272,0,0,0.04938271604938272,192.24691358024694,0)" xlink:href="#aZ"/><use transform="matrix(0.04938271604938272,0,0,0.04938271604938272,198.12345679012347,0)" xlink:href="#aT"/><use transform="matrix(0.04938271604938272,0,0,0.04938271604938272,208.00000000000003,0)" xlink:href="#aV"/></g><g id="u"><use transform="matrix(0.04938271604938272,0,0,0.04938271604938272,0,0)" xlink:href="#bt"/><use transform="matrix(0.04938271604938272,0,0,0.04938271604938272,11.851851851851853,0)" xlink:href="#bm"/><use transform="matrix(0.04938271604938272,0,0,0.04938271604938272,16.790123456790127,0)" xlink:href="#aV"/><use transform="matrix(0.04938271604938272,0,0,0.04938271604938272,27.604938271604947,0)" xlink:href="#aT"/></g><path fill="#1d262b" d="M182-130c37 4 62 22 62 59C244 23 116-4 24 0v-248c84 5 203-23 205 63 0 31-19 50-47 55zM76-148c40-3 101 13 101-30 0-44-60-28-101-31v61zm0 110c48-3 116 14 116-37 0-48-69-32-116-35v72" id="bx"/><path fill="#1d262b" d="M85 4C-2 5 27-109 22-190h50c7 57-23 150 33 157 60-5 35-97 40-157h50l1 190h-47c-2-12 1-28-3-38-12 25-28 42-61 42" id="by"/><path fill="#1d262b" d="M110-194c64 0 96 36 96 99 0 64-35 99-97 99-61 0-95-36-95-99 0-62 34-99 96-99zm-1 164c35 0 45-28 45-65 0-40-10-65-43-65-34 0-45 26-45 65 0 36 10 65 43 65" id="bz"/><g id="v"><use transform="matrix(0.04938271604938272,0,0,0.04938271604938272,0,0)" xlink:href="#bx"/><use transform="matrix(0.04938271604938272,0,0,0.04938271604938272,12.790123456790125,0)" xlink:href="#by"/><use transform="matrix(0.04938271604938272,0,0,0.04938271604938272,23.60493827160494,0)" xlink:href="#aZ"/><use transform="matrix(0.04938271604938272,0,0,0.04938271604938272,29.481481481481485,0)" xlink:href="#aZ"/><use transform="matrix(0.04938271604938272,0,0,0.04938271604938272,35.358024691358025,0)" xlink:href="#bz"/><use transform="matrix(0.04938271604938272,0,0,0.04938271604938272,46.17283950617284,0)" xlink:href="#aU"/></g><path fill="#1d262b" d="M135-194c52 0 70 43 70 98 0 56-19 99-73 100-30 1-46-15-58-35L72 0H24l1-261h50v104c11-23 29-37 60-37zM114-30c31 0 40-27 40-66 0-37-7-63-39-63s-41 28-41 65c0 36 8 64 40 64" id="bA"/><g id="w"><use transform="matrix(0.04938271604938272,0,0,0.04938271604938272,0,0)" xlink:href="#bw"/><use transform="matrix(0.04938271604938272,0,0,0.04938271604938272,12.790123456790125,0)" xlink:href="#bz"/><use transform="matrix(0.04938271604938272,0,0,0.04938271604938272,23.60493827160494,0)" xlink:href="#by"/><use transform="matrix(0.04938271604938272,0,0,0.04938271604938272,34.41975308641975,0)" xlink:href="#bA"/><use transform="matrix(0.04938271604938272,0,0,0.04938271604938272,45.23456790123457,0)" xlink:href="#aS"/><use transform="matrix(0.04938271604938272,0,0,0.04938271604938272,50.17283950617284,0)" xlink:href="#aT"/></g><path fill="#1d262b" d="M136-208V0H84v-208H4v-40h212v40h-80" id="bB"/><path fill="#1d262b" d="M135-194c53 0 70 44 70 98 0 56-19 98-73 100-31 1-45-17-59-34 3 33 2 69 2 105H25l-1-265h48c2 10 0 23 3 31 11-24 29-35 60-35zM114-30c33 0 39-31 40-66 0-38-9-64-40-64-56 0-55 130 0 130" id="bC"/><g id="x"><use transform="matrix(0.04938271604938272,0,0,0.04938271604938272,0,0)" xlink:href="#bB"/><use transform="matrix(0.04938271604938272,0,0,0.04938271604938272,9.481481481481481,0)" xlink:href="#aR"/><use transform="matrix(0.04938271604938272,0,0,0.04938271604938272,19.358024691358025,0)" xlink:href="#bC"/></g><path fill="#1d262b" d="M160-131c35 5 61 23 61 61C221 17 115-2 30 0v-248c76 3 177-17 177 60 0 33-19 50-47 57zm-97-11c50-1 110 9 110-42 0-47-63-36-110-37v79zm0 115c55-2 124 14 124-45 0-56-70-42-124-44v89" id="bD"/><path fill="#1d262b" d="M143 0L79-87 56-68V0H24v-261h32v163l83-92h37l-77 82L181 0h-38" id="bE"/><path fill="#1d262b" d="M135-143c-3-34-86-38-87 0 15 53 115 12 119 90S17 21 10-45l28-5c4 36 97 45 98 0-10-56-113-15-118-90-4-57 82-63 122-42 12 7 21 19 24 35" id="bF"/><g id="z"><use transform="matrix(0.06172839506172839,0,0,0.06172839506172839,0,0)" xlink:href="#bD"/><use transform="matrix(0.06172839506172839,0,0,0.06172839506172839,14.814814814814813,0)" xlink:href="#aD"/><use transform="matrix(0.06172839506172839,0,0,0.06172839506172839,19.691358024691354,0)" xlink:href="#aH"/><use transform="matrix(0.06172839506172839,0,0,0.06172839506172839,24.5679012345679,0)" xlink:href="#aP"/><use transform="matrix(0.06172839506172839,0,0,0.06172839506172839,36.913580246913575,0)" xlink:href="#bE"/><use transform="matrix(0.06172839506172839,0,0,0.06172839506172839,48.02469135802468,0)" xlink:href="#bF"/></g><path fill="#1d262b" d="M30-248c87 1 191-15 191 75 0 78-77 80-158 76V0H30v-248zm33 125c57 0 124 11 124-50 0-59-68-47-124-48v98" id="bG"/><path fill="#1d262b" d="M84 4C-5 8 30-112 23-190h32v120c0 31 7 50 39 49 72-2 45-101 50-169h31l1 190h-30c-1-10 1-25-2-33-11 22-28 36-60 37" id="bH"/><path fill="#1d262b" d="M115-194c55 1 70 41 70 98S169 2 115 4C84 4 66-9 55-30l1 105H24l-1-265h31l2 30c10-21 28-34 59-34zm-8 174c40 0 45-34 45-75s-6-73-45-74c-42 0-51 32-51 76 0 43 10 73 51 73" id="bI"/><g id="A"><use transform="matrix(0.06172839506172839,0,0,0.06172839506172839,0,0)" xlink:href="#bG"/><use transform="matrix(0.06172839506172839,0,0,0.06172839506172839,14.814814814814813,0)" xlink:href="#bH"/><use transform="matrix(0.06172839506172839,0,0,0.06172839506172839,27.160493827160494,0)" xlink:href="#aO"/><use transform="matrix(0.06172839506172839,0,0,0.06172839506172839,34.50617283950617,0)" xlink:href="#bI"/><use transform="matrix(0.06172839506172839,0,0,0.06172839506172839,46.85185185185185,0)" xlink:href="#aD"/><use transform="matrix(0.06172839506172839,0,0,0.06172839506172839,51.72839506172839,0)" xlink:href="#aE"/></g><path fill="#1d262b" d="M127-220V0H93v-220H8v-28h204v28h-85" id="bJ"/><path fill="#1d262b" d="M96-169c-40 0-48 33-48 73s9 75 48 75c24 0 41-14 43-38l32 2c-6 37-31 61-74 61-59 0-76-41-82-99-10-93 101-131 147-64 4 7 5 14 7 22l-32 3c-4-21-16-35-41-35" id="bK"/><g id="B"><use transform="matrix(0.06172839506172839,0,0,0.06172839506172839,0,0)" xlink:href="#bJ"/><use transform="matrix(0.06172839506172839,0,0,0.06172839506172839,12.28395061728395,0)" xlink:href="#bj"/><use transform="matrix(0.06172839506172839,0,0,0.06172839506172839,28.2716049382716,0)" xlink:href="#aH"/><use transform="matrix(0.06172839506172839,0,0,0.06172839506172839,33.148148148148145,0)" xlink:href="#bK"/><use transform="matrix(0.06172839506172839,0,0,0.06172839506172839,44.25925925925925,0)" xlink:href="#aE"/></g><path fill="#1d262b" d="M87 75C49 33 22-17 22-94c0-76 28-126 65-167h31c-38 41-64 92-64 168S80 34 118 75H87" id="bL"/><path fill="#1d262b" d="M16-82v-28h88v28H16" id="bM"/><path fill="#1d262b" d="M30-248c118-7 216 8 213 122C240-48 200 0 122 0H30v-248zM63-27c89 8 146-16 146-99s-60-101-146-95v194" id="bN"/><g id="C"><use transform="matrix(0.06172839506172839,0,0,0.06172839506172839,0,0)" xlink:href="#bL"/><use transform="matrix(0.06172839506172839,0,0,0.06172839506172839,7.345679012345679,0)" xlink:href="#bJ"/><use transform="matrix(0.06172839506172839,0,0,0.06172839506172839,18.39506172839506,0)" xlink:href="#bi"/><use transform="matrix(0.06172839506172839,0,0,0.06172839506172839,30.74074074074074,0)" xlink:href="#bM"/><use transform="matrix(0.06172839506172839,0,0,0.06172839506172839,38.08641975308642,0)" xlink:href="#bN"/><use transform="matrix(0.06172839506172839,0,0,0.06172839506172839,54.07407407407407,0)" xlink:href="#bi"/></g><path fill="#1d262b" d="M240 0l2-218c-23 76-54 145-80 218h-23L58-218 59 0H30v-248h44l77 211c21-75 51-140 76-211h43V0h-30" id="bO"/><g id="D"><use transform="matrix(0.06172839506172839,0,0,0.06172839506172839,0,0)" xlink:href="#bO"/><use transform="matrix(0.06172839506172839,0,0,0.06172839506172839,18.456790123456788,0)" xlink:href="#bi"/><use transform="matrix(0.06172839506172839,0,0,0.06172839506172839,30.80246913580247,0)" xlink:href="#aC"/><use transform="matrix(0.06172839506172839,0,0,0.06172839506172839,43.148148148148145,0)" xlink:href="#aE"/></g><path fill="#1d262b" d="M33-261c38 41 65 92 65 168S71 34 33 75H2C39 34 66-17 66-93S39-220 2-261h31" id="bP"/><g id="E"><use transform="matrix(0.06172839506172839,0,0,0.06172839506172839,0,0)" xlink:href="#aL"/><use transform="matrix(0.06172839506172839,0,0,0.06172839506172839,17.28395061728395,0)" xlink:href="#aP"/><use transform="matrix(0.06172839506172839,0,0,0.06172839506172839,29.629629629629626,0)" xlink:href="#aF"/><use transform="matrix(0.06172839506172839,0,0,0.06172839506172839,35.80246913580247,0)" xlink:href="#aL"/><use transform="matrix(0.06172839506172839,0,0,0.06172839506172839,53.08641975308642,0)" xlink:href="#aM"/><use transform="matrix(0.06172839506172839,0,0,0.06172839506172839,58.82716049382716,0)" xlink:href="#aM"/><use transform="matrix(0.06172839506172839,0,0,0.06172839506172839,65,0)" xlink:href="#bP"/></g><filter id="y" filterUnits="objectBoundingBox" x="-.03" y="0" width="1.03" height="1.04"><feOffset result="offOut" in="SourceAlpha" dx="-2.5" dy="4.33"/><feGaussianBlur result="blurOut" in="offOut" stdDeviation="1"/><feColorMatrix result="colorOut" in="blurOut" values="0 0 0 0 0.807843137254902 0 0 0 0 0.8313725490196079 0 0 0 0 0.8588235294117647 0 0 0 1 0"/><feBlend in="SourceGraphic" in2="colorOut"/></filter><g id="F"><use transform="matrix(0.04938271604938272,0,0,0.04938271604938272,0,0)" xlink:href="#br"/><use transform="matrix(0.04938271604938272,0,0,0.04938271604938272,12.790123456790125,0)" xlink:href="#bz"/></g><path fill="#1d262b" d="M147 0L96-86 75-71V0H25v-261h50v150l67-79h53l-66 74L201 0h-54" id="bQ"/><g id="G"><use transform="matrix(0.04938271604938272,0,0,0.04938271604938272,0,0)" xlink:href="#bB"/><use transform="matrix(0.04938271604938272,0,0,0.04938271604938272,9.481481481481481,0)" xlink:href="#aR"/><use transform="matrix(0.04938271604938272,0,0,0.04938271604938272,19.358024691358025,0)" xlink:href="#bd"/><use transform="matrix(0.04938271604938272,0,0,0.04938271604938272,29.23456790123457,0)" xlink:href="#bQ"/><use transform="matrix(0.04938271604938272,0,0,0.04938271604938272,39.111111111111114,0)" xlink:href="#bd"/></g><path fill="#1d262b" d="M24 0v-248h52v208h133V0H24" id="bR"/><path fill="#1d262b" d="M121-226c-27-7-43 5-38 36h38v33H83V0H34v-157H6v-33h28c-9-59 32-81 87-68v32" id="bS"/><g id="H"><use transform="matrix(0.04938271604938272,0,0,0.04938271604938272,0,0)" xlink:href="#bR"/><use transform="matrix(0.04938271604938272,0,0,0.04938271604938272,10.814814814814815,0)" xlink:href="#aT"/><use transform="matrix(0.04938271604938272,0,0,0.04938271604938272,20.69135802469136,0)" xlink:href="#bS"/><use transform="matrix(0.04938271604938272,0,0,0.04938271604938272,26.567901234567902,0)" xlink:href="#aZ"/></g><path fill="#1d262b" d="M238-95c0 69-44 99-111 99C63 4 22-25 22-93v-155h51v151c-1 38 19 59 55 60 90 1 49-130 58-211h52v153" id="bT"/><g id="I"><use transform="matrix(0.04938271604938272,0,0,0.04938271604938272,0,0)" xlink:href="#bT"/><use transform="matrix(0.04938271604938272,0,0,0.04938271604938272,12.790123456790125,0)" xlink:href="#bd"/><use transform="matrix(0.04938271604938272,0,0,0.04938271604938272,22.66666666666667,0)" xlink:href="#aT"/><use transform="matrix(0.04938271604938272,0,0,0.04938271604938272,32.543209876543216,0)" xlink:href="#aW"/></g><g id="J"><use transform="matrix(0.04938271604938272,0,0,0.04938271604938272,0,0)" xlink:href="#bw"/><use transform="matrix(0.04938271604938272,0,0,0.04938271604938272,12.790123456790125,0)" xlink:href="#aT"/><use transform="matrix(0.04938271604938272,0,0,0.04938271604938272,22.66666666666667,0)" xlink:href="#bS"/><use transform="matrix(0.04938271604938272,0,0,0.04938271604938272,28.54320987654322,0)" xlink:href="#bm"/><use transform="matrix(0.04938271604938272,0,0,0.04938271604938272,33.48148148148149,0)" xlink:href="#aU"/><use transform="matrix(0.04938271604938272,0,0,0.04938271604938272,44.296296296296305,0)" xlink:href="#aT"/><use transform="matrix(0.04938271604938272,0,0,0.04938271604938272,54.17283950617284,0)" xlink:href="#aV"/></g><path fill="#1d262b" d="M114-157C55-157 80-60 75 0H25v-261h50l-1 109c12-26 28-41 61-42 86-1 58 113 63 194h-50c-7-57 23-157-34-157" id="bU"/><g id="K"><use transform="matrix(0.04938271604938272,0,0,0.04938271604938272,0,0)" xlink:href="#bB"/><use transform="matrix(0.04938271604938272,0,0,0.04938271604938272,10.814814814814815,0)" xlink:href="#bU"/><use transform="matrix(0.04938271604938272,0,0,0.04938271604938272,21.62962962962963,0)" xlink:href="#aW"/><use transform="matrix(0.04938271604938272,0,0,0.04938271604938272,28.543209876543205,0)" xlink:href="#aT"/><use transform="matrix(0.04938271604938272,0,0,0.04938271604938272,38.41975308641975,0)" xlink:href="#bd"/><use transform="matrix(0.04938271604938272,0,0,0.04938271604938272,48.2962962962963,0)" xlink:href="#bU"/><use transform="matrix(0.04938271604938272,0,0,0.04938271604938272,59.111111111111114,0)" xlink:href="#bz"/><use transform="matrix(0.04938271604938272,0,0,0.04938271604938272,69.92592592592592,0)" xlink:href="#aS"/><use transform="matrix(0.04938271604938272,0,0,0.04938271604938272,74.8641975308642,0)" xlink:href="#aV"/></g><path fill="#1d262b" d="M67-93c0 74 22 123 53 168H70C40 30 18-18 18-93s22-123 52-168h50c-32 44-53 94-53 168" id="bV"/><g id="L"><use transform="matrix(0.04938271604938272,0,0,0.04938271604938272,0,0)" xlink:href="#bV"/><use transform="matrix(0.04938271604938272,0,0,0.04938271604938272,5.8765432098765435,0)" xlink:href="#aV"/><use transform="matrix(0.04938271604938272,0,0,0.04938271604938272,16.691358024691358,0)" xlink:href="#aT"/><use transform="matrix(0.04938271604938272,0,0,0.04938271604938272,26.567901234567902,0)" xlink:href="#bS"/><use transform="matrix(0.04938271604938272,0,0,0.04938271604938272,32.44444444444444,0)" xlink:href="#aR"/><use transform="matrix(0.04938271604938272,0,0,0.04938271604938272,42.32098765432099,0)" xlink:href="#by"/><use transform="matrix(0.04938271604938272,0,0,0.04938271604938272,53.135802469135804,0)" xlink:href="#aS"/><use transform="matrix(0.04938271604938272,0,0,0.04938271604938272,58.074074074074076,0)" xlink:href="#aZ"/></g><path fill="#1d262b" d="M15-22v-40l146-57-146-57v-40l181 69v56" id="bW"/><path fill="#1d262b" d="M128-127c34 4 56 21 59 58 7 91-148 94-172 28-4-9-6-17-7-26l51-5c1 24 16 35 40 36 23 0 39-12 38-36-1-31-31-36-65-34v-40c32 2 59-3 59-33 0-20-13-33-34-33s-33 13-35 32l-50-3c6-44 37-68 86-68 50 0 83 20 83 66 0 35-22 52-53 58" id="bX"/><g id="M"><use transform="matrix(0.04938271604938272,0,0,0.04938271604938272,0,0)" xlink:href="#bW"/><use transform="matrix(0.04938271604938272,0,0,0.04938271604938272,10.370370370370372,0)" xlink:href="#bX"/></g><path fill="#1d262b" d="M102-93c0 74-22 123-52 168H0C30 29 54-18 53-93c0-74-22-123-53-168h50c30 45 52 94 52 168" id="bY"/><g id="N"><use transform="matrix(0.04938271604938272,0,0,0.04938271604938272,0,0)" xlink:href="#aZ"/><use transform="matrix(0.04938271604938272,0,0,0.04938271604938272,5.8765432098765435,0)" xlink:href="#aR"/><use transform="matrix(0.04938271604938272,0,0,0.04938271604938272,15.753086419753087,0)" xlink:href="#bd"/><use transform="matrix(0.04938271604938272,0,0,0.04938271604938272,25.629629629629633,0)" xlink:href="#bQ"/><use transform="matrix(0.04938271604938272,0,0,0.04938271604938272,35.50617283950618,0)" xlink:href="#bd"/><use transform="matrix(0.04938271604938272,0,0,0.04938271604938272,45.38271604938272,0)" xlink:href="#bY"/></g><g id="O"><use transform="matrix(0.04938271604938272,0,0,0.04938271604938272,0,0)" xlink:href="#bW"/><use transform="matrix(0.04938271604938272,0,0,0.04938271604938272,10.370370370370372,0)" xlink:href="#bq"/></g><filter id="P" filterUnits="objectBoundingBox" x="-.04" y="0" width="1.04" height="1.05"><feOffset result="offOut" in="SourceAlpha" dx="-2.5" dy="4.33"/><feGaussianBlur result="blurOut" in="offOut" stdDeviation="1"/><feColorMatrix result="colorOut" in="blurOut" values="0 0 0 0 0.807843137254902 0 0 0 0 0.8313725490196079 0 0 0 0 0.8588235294117647 0 0 0 1 0"/><feBlend in="SourceGraphic" in2="colorOut"/></filter><path d="M24-248c120-7 223 5 221 122C244-46 201 0 124 0H24v-248zM76-40c74 7 117-18 117-86 0-67-45-88-117-82v168" id="bZ"/><path d="M25-224v-37h50v37H25zM25 0v-190h50V0H25" id="ca"/><path d="M133-34C117-15 103 5 69 4 32 3 11-16 11-54c-1-60 55-63 116-61 1-26-3-47-28-47-18 1-26 9-28 27l-52-2c7-38 36-58 82-57s74 22 75 68l1 82c-1 14 12 18 25 15v27c-30 8-71 5-69-32zm-48 3c29 0 43-24 42-57-32 0-66-3-65 30 0 17 8 27 23 27" id="cb"/><path d="M195-6C206 82 75 100 31 46c-4-6-6-13-8-21l49-6c3 16 16 24 34 25 40 0 42-37 40-79-11 22-30 35-61 35-53 0-70-43-70-97 0-56 18-96 73-97 30 0 46 14 59 34l2-30h47zm-90-29c32 0 41-27 41-63 0-35-9-62-40-62-32 0-39 29-40 63 0 36 9 62 39 62" id="cc"/><path d="M135-150c-39-12-60 13-60 57V0H25l-1-190h47c2 13-1 29 3 40 6-28 27-53 61-41v41" id="cd"/><path d="M220-157c-53 9-28 100-34 157h-49v-107c1-27-5-49-29-50C55-147 81-57 75 0H25l-1-190h47c2 12-1 28 3 38 10-53 101-56 108 0 13-22 24-43 59-42 82 1 51 116 57 194h-49v-107c-1-25-5-48-29-50" id="ce"/><g id="Q"><use transform="matrix(0.04081888500256999,0,0,0.04081888500256999,0,0)" xlink:href="#bZ"/><use transform="matrix(0.04081888500256999,0,0,0.04081888500256999,10.572091215665628,0)" xlink:href="#ca"/><use transform="matrix(0.04081888500256999,0,0,0.04081888500256999,14.653979715922627,0)" xlink:href="#cb"/><use transform="matrix(0.04081888500256999,0,0,0.04081888500256999,22.817756716436627,0)" xlink:href="#cc"/><use transform="matrix(0.04081888500256999,0,0,0.04081888500256999,31.757092531999454,0)" xlink:href="#cd"/><use transform="matrix(0.04081888500256999,0,0,0.04081888500256999,37.47173643235925,0)" xlink:href="#cb"/><use transform="matrix(0.04081888500256999,0,0,0.04081888500256999,45.63551343287325,0)" xlink:href="#ce"/></g><path d="M195 0l-88-114-31 24V0H24v-248h52v113l112-113h60L142-143 257 0h-62" id="cf"/><path d="M185-48c-13 30-37 53-82 52C43 2 14-33 14-96s30-98 90-98c62 0 83 45 84 108H66c0 31 8 55 39 56 18 0 30-7 34-22zm-45-69c5-46-57-63-70-21-2 6-4 13-4 21h74" id="cg"/><path d="M123 10C108 53 80 86 19 72V37c35 8 53-11 59-39L3-190h52l48 148c12-52 28-100 44-148h51" id="ch"/><g id="R"><use transform="matrix(0.04081888500256999,0,0,0.04081888500256999,0,0)" xlink:href="#cf"/><use transform="matrix(0.04081888500256999,0,0,0.04081888500256999,10.572091215665628,0)" xlink:href="#cg"/><use transform="matrix(0.04081888500256999,0,0,0.04081888500256999,18.735868216179625,0)" xlink:href="#ch"/></g><path d="M127-220V0H93v-220H8v-28h204v28h-85" id="ci"/><path d="M100-194c62-1 85 37 85 99 1 63-27 99-86 99S16-35 15-95c0-66 28-99 85-99zM99-20c44 1 53-31 53-75 0-43-8-75-51-75s-53 32-53 75 10 74 51 75" id="cj"/><path d="M16-82v-28h88v28H16" id="ck"/><path d="M30-248c118-7 216 8 213 122C240-48 200 0 122 0H30v-248zM63-27c89 8 146-16 146-99s-60-101-146-95v194" id="cl"/><g id="S"><use transform="matrix(0.04081888500256999,0,0,0.04081888500256999,0,0)" xlink:href="#ci"/><use transform="matrix(0.04081888500256999,0,0,0.04081888500256999,7.306580415460029,0)" xlink:href="#cj"/><use transform="matrix(0.04081888500256999,0,0,0.04081888500256999,15.470357415974028,0)" xlink:href="#ck"/><use transform="matrix(0.04081888500256999,0,0,0.04081888500256999,20.327804731279855,0)" xlink:href="#cl"/><use transform="matrix(0.04081888500256999,0,0,0.04081888500256999,30.899895946945485,0)" xlink:href="#cj"/></g><path d="M30 0v-248h33v221h125V0H30" id="cm"/><path d="M24-231v-30h32v30H24zM24 0v-190h32V0H24" id="cn"/><path d="M135-143c-3-34-86-38-87 0 15 53 115 12 119 90S17 21 10-45l28-5c4 36 97 45 98 0-10-56-113-15-118-90-4-57 82-63 122-42 12 7 21 19 24 35" id="co"/><path d="M59-47c-2 24 18 29 38 22v24C64 9 27 4 27-40v-127H5v-23h24l9-43h21v43h35v23H59v120" id="cp"/><g id="T"><use transform="matrix(0.04081888500256999,0,0,0.04081888500256999,0,0)" xlink:href="#cm"/><use transform="matrix(0.04081888500256999,0,0,0.04081888500256999,8.163777000513997,0)" xlink:href="#cn"/><use transform="matrix(0.04081888500256999,0,0,0.04081888500256999,11.388468915717027,0)" xlink:href="#co"/><use transform="matrix(0.04081888500256999,0,0,0.04081888500256999,18.735868216179625,0)" xlink:href="#cp"/></g><path d="M240 0l2-218c-23 76-54 145-80 218h-23L58-218 59 0H30v-248h44l77 211c21-75 51-140 76-211h43V0h-30" id="cq"/><path d="M85-194c31 0 48 13 60 33l-1-100h32l1 261h-30c-2-10 0-23-3-31C134-8 116 4 85 4 32 4 16-35 15-94c0-66 23-100 70-100zm9 24c-40 0-46 34-46 75 0 40 6 74 45 74 42 0 51-32 51-76 0-42-9-74-50-73" id="cr"/><path d="M100-194c63 0 86 42 84 106H49c0 40 14 67 53 68 26 1 43-12 49-29l28 8c-11 28-37 45-77 45C44 4 14-33 15-96c1-61 26-98 85-98zm52 81c6-60-76-77-97-28-3 7-6 17-6 28h103" id="cs"/><g id="U"><use transform="matrix(0.04081888500256999,0,0,0.04081888500256999,0,0)" xlink:href="#cq"/><use transform="matrix(0.04081888500256999,0,0,0.04081888500256999,12.204846615768428,0)" xlink:href="#cj"/><use transform="matrix(0.04081888500256999,0,0,0.04081888500256999,20.368623616282424,0)" xlink:href="#cr"/><use transform="matrix(0.04081888500256999,0,0,0.04081888500256999,28.532400616796423,0)" xlink:href="#cs"/></g><path d="M101-234c-31-9-42 10-38 44h38v23H63V0H32v-167H5v-23h27c-7-52 17-82 69-68v24" id="ct"/><path d="M141-36C126-15 110 5 73 4 37 3 15-17 15-53c-1-64 63-63 125-63 3-35-9-54-41-54-24 1-41 7-42 31l-33-3c5-37 33-52 76-52 45 0 72 20 72 64v82c-1 20 7 32 28 27v20c-31 9-61-2-59-35zM48-53c0 20 12 33 32 33 41-3 63-29 60-74-43 2-92-5-92 41" id="cu"/><path d="M84 4C-5 8 30-112 23-190h32v120c0 31 7 50 39 49 72-2 45-101 50-169h31l1 190h-30c-1-10 1-25-2-33-11 22-28 36-60 37" id="cv"/><path d="M24 0v-261h32V0H24" id="cw"/><g id="V"><use transform="matrix(0.04081888500256999,0,0,0.04081888500256999,0,0)" xlink:href="#cl"/><use transform="matrix(0.04081888500256999,0,0,0.04081888500256999,10.572091215665628,0)" xlink:href="#cs"/><use transform="matrix(0.04081888500256999,0,0,0.04081888500256999,18.735868216179625,0)" xlink:href="#ct"/><use transform="matrix(0.04081888500256999,0,0,0.04081888500256999,22.817756716436627,0)" xlink:href="#cu"/><use transform="matrix(0.04081888500256999,0,0,0.04081888500256999,30.981533716950622,0)" xlink:href="#cv"/><use transform="matrix(0.04081888500256999,0,0,0.04081888500256999,39.14531071746462,0)" xlink:href="#cw"/><use transform="matrix(0.04081888500256999,0,0,0.04081888500256999,42.37000263266765,0)" xlink:href="#cp"/></g><path fill="#1d262b" d="M62-168c30 0 50 19 50 48S92-70 62-70c-29 0-48-21-48-50s20-48 48-48" id="cx"/><use transform="matrix(0.05,0,0,0.05,0,0)" xlink:href="#cx" id="W"/><path fill="#1d262b" d="M266 0h-40l-56-210L115 0H75L2-248h35L96-30l15-64 43-154h32l59 218 59-218h35" id="cy"/><g id="X"><use transform="matrix(0.05,0,0,0.05,0,0)" xlink:href="#cy"/><use transform="matrix(0.05,0,0,0.05,16.95,0)" xlink:href="#aJ"/><use transform="matrix(0.05,0,0,0.05,26.950000000000003,0)" xlink:href="#aE"/><use transform="matrix(0.05,0,0,0.05,36.95,0)" xlink:href="#aP"/></g><path fill="#1d262b" d="M115-194c53 0 69 39 70 98 0 66-23 100-70 100C84 3 66-7 56-30L54 0H23l1-261h32v101c10-23 28-34 59-34zm-8 174c40 0 45-34 45-75 0-40-5-75-45-74-42 0-51 32-51 76 0 43 10 73 51 73" id="cz"/><g id="Y"><use transform="matrix(0.05,0,0,0.05,0,0)" xlink:href="#cz"/><use transform="matrix(0.05,0,0,0.05,10,0)" xlink:href="#bH"/><use transform="matrix(0.05,0,0,0.05,20,0)" xlink:href="#aK"/><use transform="matrix(0.05,0,0,0.05,25,0)" xlink:href="#aK"/><use transform="matrix(0.05,0,0,0.05,30,0)" xlink:href="#bi"/><use transform="matrix(0.05,0,0,0.05,40,0)" xlink:href="#aP"/></g><g id="Z"><use transform="matrix(0.05,0,0,0.05,0,0)" xlink:href="#aH"/><use transform="matrix(0.05,0,0,0.05,3.95,0)" xlink:href="#bF"/></g><g id="aa"><use transform="matrix(0.05,0,0,0.05,0,0)" xlink:href="#bI"/><use transform="matrix(0.05,0,0,0.05,10,0)" xlink:href="#aO"/><use transform="matrix(0.05,0,0,0.05,15.949999999999998,0)" xlink:href="#aE"/><use transform="matrix(0.05,0,0,0.05,25.950000000000003,0)" xlink:href="#bF"/><use transform="matrix(0.05,0,0,0.05,34.95,0)" xlink:href="#bF"/><use transform="matrix(0.05,0,0,0.05,43.95,0)" xlink:href="#aE"/><use transform="matrix(0.05,0,0,0.05,53.95,0)" xlink:href="#aC"/></g><g id="ab"><use transform="matrix(0.05,0,0,0.05,0,0)" xlink:href="#bn"/><use transform="matrix(0.05,0,0,0.05,10,0)" xlink:href="#aK"/></g><path fill="#1d262b" d="M179-190L93 31C79 59 56 82 12 73V49c39 6 53-20 64-50L1-190h34L92-34l54-156h33" id="cA"/><g id="ac"><use transform="matrix(0.05,0,0,0.05,0,0)" xlink:href="#bn"/><use transform="matrix(0.05,0,0,0.05,10,0)" xlink:href="#aP"/><use transform="matrix(0.05,0,0,0.05,20,0)" xlink:href="#cA"/></g><g id="ad"><use transform="matrix(0.05,0,0,0.05,0,0)" xlink:href="#bI"/><use transform="matrix(0.05,0,0,0.05,10,0)" xlink:href="#bi"/><use transform="matrix(0.05,0,0,0.05,20,0)" xlink:href="#aH"/><use transform="matrix(0.05,0,0,0.05,23.95,0)" xlink:href="#aP"/><use transform="matrix(0.05,0,0,0.05,33.95,0)" xlink:href="#aK"/></g><g id="ae"><use transform="matrix(0.05,0,0,0.05,0,0)" xlink:href="#aH"/><use transform="matrix(0.05,0,0,0.05,3.95,0)" xlink:href="#aP"/></g><g id="af"><use transform="matrix(0.05,0,0,0.05,0,0)" xlink:href="#bN"/><use transform="matrix(0.05,0,0,0.05,12.950000000000001,0)" xlink:href="#aE"/><use transform="matrix(0.05,0,0,0.05,22.950000000000003,0)" xlink:href="#aM"/><use transform="matrix(0.05,0,0,0.05,27.950000000000003,0)" xlink:href="#bn"/><use transform="matrix(0.05,0,0,0.05,37.95,0)" xlink:href="#bH"/><use transform="matrix(0.05,0,0,0.05,47.95,0)" xlink:href="#aD"/><use transform="matrix(0.05,0,0,0.05,51.900000000000006,0)" xlink:href="#aK"/></g><g id="ag"><use transform="matrix(0.05,0,0,0.05,0,0)" xlink:href="#bO"/><use transform="matrix(0.05,0,0,0.05,14.950000000000001,0)" xlink:href="#bi"/><use transform="matrix(0.05,0,0,0.05,24.950000000000003,0)" xlink:href="#aC"/><use transform="matrix(0.05,0,0,0.05,34.95,0)" xlink:href="#aE"/></g><path fill="#1d262b" d="M141 0L90-78 38 0H4l68-98-65-92h35l48 74 47-74h35l-64 92 68 98h-35" id="cB"/><g id="ah"><use transform="matrix(0.05,0,0,0.05,0,0)" xlink:href="#aP"/><use transform="matrix(0.05,0,0,0.05,10,0)" xlink:href="#aE"/><use transform="matrix(0.05,0,0,0.05,20,0)" xlink:href="#cB"/><use transform="matrix(0.05,0,0,0.05,29,0)" xlink:href="#aK"/></g><g id="ai"><use transform="matrix(0.05,0,0,0.05,0,0)" xlink:href="#bK"/><use transform="matrix(0.05,0,0,0.05,9,0)" xlink:href="#bn"/><use transform="matrix(0.05,0,0,0.05,19,0)" xlink:href="#aD"/><use transform="matrix(0.05,0,0,0.05,22.95,0)" xlink:href="#aE"/><use transform="matrix(0.05,0,0,0.05,32.95,0)" xlink:href="#aP"/><use transform="matrix(0.05,0,0,0.05,42.95,0)" xlink:href="#aC"/><use transform="matrix(0.05,0,0,0.05,52.95,0)" xlink:href="#bn"/><use transform="matrix(0.05,0,0,0.05,62.95,0)" xlink:href="#aO"/></g><path fill="#1d262b" d="M108 0H70L1-190h34L89-25l56-165h34" id="cC"/><path fill="#1d262b" d="M47-170H22l-4-78h33" id="cD"/><g id="aj"><use transform="matrix(0.05,0,0,0.05,0,0)" xlink:href="#aE"/><use transform="matrix(0.05,0,0,0.05,10,0)" xlink:href="#cC"/><use transform="matrix(0.05,0,0,0.05,19,0)" xlink:href="#aE"/><use transform="matrix(0.05,0,0,0.05,29,0)" xlink:href="#aP"/><use transform="matrix(0.05,0,0,0.05,39,0)" xlink:href="#aK"/><use transform="matrix(0.05,0,0,0.05,44,0)" xlink:href="#cD"/><use transform="matrix(0.05,0,0,0.05,47.4,0)" xlink:href="#bF"/></g><g id="ak"><use transform="matrix(0.05,0,0,0.05,0,0)" xlink:href="#bn"/><use transform="matrix(0.05,0,0,0.05,10,0)" xlink:href="#bI"/><use transform="matrix(0.05,0,0,0.05,20,0)" xlink:href="#bI"/></g><g id="al"><use transform="matrix(0.05,0,0,0.05,0,0)" xlink:href="#bj"/><use transform="matrix(0.05,0,0,0.05,12.950000000000001,0)" xlink:href="#aH"/><use transform="matrix(0.05,0,0,0.05,16.900000000000002,0)" xlink:href="#aD"/><use transform="matrix(0.05,0,0,0.05,20.85,0)" xlink:href="#aD"/></g><g id="am"><use transform="matrix(0.05,0,0,0.05,0,0)" xlink:href="#aD"/><use transform="matrix(0.05,0,0,0.05,3.95,0)" xlink:href="#bn"/><use transform="matrix(0.05,0,0,0.05,13.949999999999998,0)" xlink:href="#bH"/><use transform="matrix(0.05,0,0,0.05,23.95,0)" xlink:href="#aP"/><use transform="matrix(0.05,0,0,0.05,33.95,0)" xlink:href="#bK"/><use transform="matrix(0.05,0,0,0.05,42.95,0)" xlink:href="#aJ"/></g><path fill="#1d262b" d="M33 0v-38h34V0H33" id="cE"/><g id="an"><use transform="matrix(0.05,0,0,0.05,0,0)" xlink:href="#bL"/><use transform="matrix(0.05,0,0,0.05,5.95,0)" xlink:href="#aE"/><use transform="matrix(0.05,0,0,0.05,15.949999999999998,0)" xlink:href="#cB"/><use transform="matrix(0.05,0,0,0.05,24.95,0)" xlink:href="#cE"/></g><path fill="#1d262b" d="M209 0H11v-25l151-195H24v-28h176v25L50-27h159V0" id="cF"/><path fill="#1d262b" d="M210-169c-67 3-38 105-44 169h-31v-121c0-29-5-50-35-48C34-165 62-65 56 0H25l-1-190h30c1 10-1 24 2 32 10-44 99-50 107 0 11-21 27-35 58-36 85-2 47 119 55 194h-31v-121c0-29-5-49-35-48" id="cG"/><g id="ao"><use transform="matrix(0.05,0,0,0.05,0,0)" xlink:href="#cF"/><use transform="matrix(0.05,0,0,0.05,10.950000000000001,0)" xlink:href="#bi"/><use transform="matrix(0.05,0,0,0.05,20.950000000000003,0)" xlink:href="#bi"/><use transform="matrix(0.05,0,0,0.05,30.950000000000003,0)" xlink:href="#cG"/></g><g id="ap"><use transform="matrix(0.05,0,0,0.05,0,0)" xlink:href="#aM"/><use transform="matrix(0.05,0,0,0.05,5,0)" xlink:href="#bi"/><use transform="matrix(0.05,0,0,0.05,15,0)" xlink:href="#aO"/></g><g id="aq"><use transform="matrix(0.05,0,0,0.05,0,0)" xlink:href="#bH"/><use transform="matrix(0.05,0,0,0.05,10,0)" xlink:href="#bI"/><use transform="matrix(0.05,0,0,0.05,20,0)" xlink:href="#bK"/><use transform="matrix(0.05,0,0,0.05,29,0)" xlink:href="#bi"/><use transform="matrix(0.05,0,0,0.05,39,0)" xlink:href="#cG"/><use transform="matrix(0.05,0,0,0.05,53.95,0)" xlink:href="#aH"/><use transform="matrix(0.05,0,0,0.05,57.900000000000006,0)" xlink:href="#aP"/><use transform="matrix(0.05,0,0,0.05,67.9,0)" xlink:href="#aI"/></g><g id="ar"><use transform="matrix(0.05,0,0,0.05,0,0)" xlink:href="#cG"/><use transform="matrix(0.05,0,0,0.05,14.950000000000001,0)" xlink:href="#aE"/><use transform="matrix(0.05,0,0,0.05,24.950000000000003,0)" xlink:href="#aE"/><use transform="matrix(0.05,0,0,0.05,34.95,0)" xlink:href="#aK"/><use transform="matrix(0.05,0,0,0.05,39.95,0)" xlink:href="#aH"/><use transform="matrix(0.05,0,0,0.05,43.900000000000006,0)" xlink:href="#aP"/><use transform="matrix(0.05,0,0,0.05,53.900000000000006,0)" xlink:href="#aI"/><use transform="matrix(0.05,0,0,0.05,63.900000000000006,0)" xlink:href="#bP"/></g><g id="as"><use transform="matrix(0.05,0,0,0.05,0,0)" xlink:href="#bD"/><use transform="matrix(0.05,0,0,0.05,12,0)" xlink:href="#bH"/><use transform="matrix(0.05,0,0,0.05,22,0)" xlink:href="#aK"/><use transform="matrix(0.05,0,0,0.05,27,0)" xlink:href="#aK"/><use transform="matrix(0.05,0,0,0.05,32,0)" xlink:href="#bi"/><use transform="matrix(0.05,0,0,0.05,42,0)" xlink:href="#aP"/></g><g id="at"><use transform="matrix(0.05,0,0,0.05,0,0)" xlink:href="#bn"/><use transform="matrix(0.05,0,0,0.05,10,0)" xlink:href="#aP"/><use transform="matrix(0.05,0,0,0.05,20,0)" xlink:href="#cA"/><use transform="matrix(0.05,0,0,0.05,29,0)" xlink:href="#bj"/><use transform="matrix(0.05,0,0,0.05,41.95,0)" xlink:href="#aE"/><use transform="matrix(0.05,0,0,0.05,51.95,0)" xlink:href="#aJ"/><use transform="matrix(0.05,0,0,0.05,61.95,0)" xlink:href="#aE"/><use transform="matrix(0.05,0,0,0.05,71.95,0)" xlink:href="#aO"/><use transform="matrix(0.05,0,0,0.05,77.9,0)" xlink:href="#aE"/></g><g id="au"><use transform="matrix(0.05,0,0,0.05,0,0)" xlink:href="#bJ"/><use transform="matrix(0.05,0,0,0.05,8.950000000000001,0)" xlink:href="#bi"/><use transform="matrix(0.05,0,0,0.05,18.950000000000003,0)" xlink:href="#bM"/><use transform="matrix(0.05,0,0,0.05,24.900000000000002,0)" xlink:href="#bN"/><use transform="matrix(0.05,0,0,0.05,37.85,0)" xlink:href="#bi"/></g><g id="av"><use transform="matrix(0.05,0,0,0.05,0,0)" xlink:href="#bH"/><use transform="matrix(0.05,0,0,0.05,10,0)" xlink:href="#bF"/><use transform="matrix(0.05,0,0,0.05,19,0)" xlink:href="#aE"/><use transform="matrix(0.05,0,0,0.05,29,0)" xlink:href="#aO"/></g><g id="aw"><use transform="matrix(0.05,0,0,0.05,0,0)" xlink:href="#aC"/><use transform="matrix(0.05,0,0,0.05,10,0)" xlink:href="#aE"/><use transform="matrix(0.05,0,0,0.05,20,0)" xlink:href="#aM"/><use transform="matrix(0.05,0,0,0.05,25,0)" xlink:href="#aH"/><use transform="matrix(0.05,0,0,0.05,28.950000000000003,0)" xlink:href="#aP"/><use transform="matrix(0.05,0,0,0.05,38.95,0)" xlink:href="#aE"/><use transform="matrix(0.05,0,0,0.05,48.95,0)" xlink:href="#aC"/></g><g id="ax"><use transform="matrix(0.05,0,0,0.05,0,0)" xlink:href="#bJ"/><use transform="matrix(0.05,0,0,0.05,8.950000000000001,0)" xlink:href="#bi"/><use transform="matrix(0.05,0,0,0.05,18.950000000000003,0)" xlink:href="#bM"/><use transform="matrix(0.05,0,0,0.05,24.900000000000002,0)" xlink:href="#bN"/><use transform="matrix(0.05,0,0,0.05,37.85,0)" xlink:href="#bi"/></g><g id="ay"><use transform="matrix(0.05,0,0,0.05,0,0)" xlink:href="#aD"/><use transform="matrix(0.05,0,0,0.05,3.95,0)" xlink:href="#aH"/><use transform="matrix(0.05,0,0,0.05,7.9,0)" xlink:href="#bF"/><use transform="matrix(0.05,0,0,0.05,16.9,0)" xlink:href="#aK"/></g><g id="az"><use transform="matrix(0.05,0,0,0.05,0,0)" xlink:href="#bj"/><use transform="matrix(0.05,0,0,0.05,12.950000000000001,0)" xlink:href="#aH"/><use transform="matrix(0.05,0,0,0.05,16.900000000000002,0)" xlink:href="#aD"/><use transform="matrix(0.05,0,0,0.05,20.85,0)" xlink:href="#aD"/></g><g id="aA"><use transform="matrix(0.05,0,0,0.05,0,0)" xlink:href="#aD"/><use transform="matrix(0.05,0,0,0.05,3.95,0)" xlink:href="#bn"/><use transform="matrix(0.05,0,0,0.05,13.949999999999998,0)" xlink:href="#bH"/><use transform="matrix(0.05,0,0,0.05,23.95,0)" xlink:href="#aP"/><use transform="matrix(0.05,0,0,0.05,33.95,0)" xlink:href="#bK"/><use transform="matrix(0.05,0,0,0.05,42.95,0)" xlink:href="#aJ"/></g></defs></g></svg>